G04 #@! TF.GenerationSoftware,KiCad,Pcbnew,7.0.8*
G04 #@! TF.CreationDate,2023-11-03T14:19:20+02:00*
G04 #@! TF.ProjectId,TinyNumberHat,54696e79-4e75-46d6-9265-724861742e6b,rev?*
G04 #@! TF.SameCoordinates,Original*
G04 #@! TF.FileFunction,Other,User*
%FSLAX46Y46*%
G04 Gerber Fmt 4.6, Leading zero omitted, Abs format (unit mm)*
G04 Created by KiCad (PCBNEW 7.0.8) date 2023-11-03 14:19:20*
%MOMM*%
%LPD*%
G01*
G04 APERTURE LIST*
%ADD10C,0.050000*%
%ADD11C,0.150000*%
G04 APERTURE END LIST*
D10*
X145450000Y-93050000D02*
X155550000Y-93050000D01*
X145450000Y-95150000D02*
X145450000Y-93050000D01*
X145450000Y-97750000D02*
X147250000Y-97750000D01*
X145450000Y-99850000D02*
X145450000Y-97750000D01*
X147250000Y-95150000D02*
X145450000Y-95150000D01*
X147250000Y-97750000D02*
X147250000Y-95150000D01*
X153750000Y-95150000D02*
X153750000Y-97750000D01*
X153750000Y-97750000D02*
X155550000Y-97750000D01*
X155550000Y-93050000D02*
X155550000Y-95150000D01*
X155550000Y-95150000D02*
X153750000Y-95150000D01*
X155550000Y-97750000D02*
X155550000Y-99850000D01*
X155550000Y-99850000D02*
X145450000Y-99850000D01*
X134450000Y-93050000D02*
X144550000Y-93050000D01*
X134450000Y-95150000D02*
X134450000Y-93050000D01*
X134450000Y-97750000D02*
X136250000Y-97750000D01*
X134450000Y-99850000D02*
X134450000Y-97750000D01*
X136250000Y-95150000D02*
X134450000Y-95150000D01*
X136250000Y-97750000D02*
X136250000Y-95150000D01*
X142750000Y-95150000D02*
X142750000Y-97750000D01*
X142750000Y-97750000D02*
X144550000Y-97750000D01*
X144550000Y-93050000D02*
X144550000Y-95150000D01*
X144550000Y-95150000D02*
X142750000Y-95150000D01*
X144550000Y-97750000D02*
X144550000Y-99850000D01*
X144550000Y-99850000D02*
X134450000Y-99850000D01*
X156070000Y-99280000D02*
X156070000Y-96320000D01*
X157530000Y-99280000D02*
X156070000Y-99280000D01*
X156070000Y-96320000D02*
X157530000Y-96320000D01*
X157530000Y-96320000D02*
X157530000Y-99280000D01*
X106025000Y-81350000D02*
X106025000Y-88650000D01*
X99975000Y-81350000D02*
X106025000Y-81350000D01*
X106025000Y-88650000D02*
X99975000Y-88650000D01*
X99975000Y-88650000D02*
X99975000Y-81350000D01*
X162880000Y-86530000D02*
X159920000Y-86530000D01*
X162880000Y-85070000D02*
X162880000Y-86530000D01*
X159920000Y-86530000D02*
X159920000Y-85070000D01*
X159920000Y-85070000D02*
X162880000Y-85070000D01*
X162905000Y-84930000D02*
X159945000Y-84930000D01*
X162905000Y-83470000D02*
X162905000Y-84930000D01*
X159945000Y-84930000D02*
X159945000Y-83470000D01*
X159945000Y-83470000D02*
X162905000Y-83470000D01*
X109450000Y-93050000D02*
X119550000Y-93050000D01*
X109450000Y-95150000D02*
X109450000Y-93050000D01*
X109450000Y-97750000D02*
X111250000Y-97750000D01*
X109450000Y-99850000D02*
X109450000Y-97750000D01*
X111250000Y-95150000D02*
X109450000Y-95150000D01*
X111250000Y-97750000D02*
X111250000Y-95150000D01*
X117750000Y-95150000D02*
X117750000Y-97750000D01*
X117750000Y-97750000D02*
X119550000Y-97750000D01*
X119550000Y-93050000D02*
X119550000Y-95150000D01*
X119550000Y-95150000D02*
X117750000Y-95150000D01*
X119550000Y-97750000D02*
X119550000Y-99850000D01*
X119550000Y-99850000D02*
X109450000Y-99850000D01*
X120450000Y-93050000D02*
X130550000Y-93050000D01*
X120450000Y-95150000D02*
X120450000Y-93050000D01*
X120450000Y-97750000D02*
X122250000Y-97750000D01*
X120450000Y-99850000D02*
X120450000Y-97750000D01*
X122250000Y-95150000D02*
X120450000Y-95150000D01*
X122250000Y-97750000D02*
X122250000Y-95150000D01*
X128750000Y-95150000D02*
X128750000Y-97750000D01*
X128750000Y-97750000D02*
X130550000Y-97750000D01*
X130550000Y-93050000D02*
X130550000Y-95150000D01*
X130550000Y-95150000D02*
X128750000Y-95150000D01*
X130550000Y-97750000D02*
X130550000Y-99850000D01*
X130550000Y-99850000D02*
X120450000Y-99850000D01*
X159895000Y-86670000D02*
X162855000Y-86670000D01*
X159895000Y-88130000D02*
X159895000Y-86670000D01*
X162855000Y-86670000D02*
X162855000Y-88130000D01*
X162855000Y-88130000D02*
X159895000Y-88130000D01*
D11*
X164600000Y-96500000D02*
G75*
G03*
X164600000Y-96500000I-3100000J0D01*
G01*
X106600000Y-73500000D02*
G75*
G03*
X106600000Y-73500000I-3100000J0D01*
G01*
D10*
X100320000Y-89600000D02*
X105280000Y-89600000D01*
X100320000Y-92800000D02*
X100320000Y-89600000D01*
X105280000Y-89600000D02*
X105280000Y-92800000D01*
X105280000Y-92800000D02*
X100320000Y-92800000D01*
D11*
X106600000Y-96500000D02*
G75*
G03*
X106600000Y-96500000I-3100000J0D01*
G01*
D10*
X159450000Y-92850000D02*
X159450000Y-89150000D01*
X161350000Y-92850000D02*
X159450000Y-92850000D01*
X159450000Y-89150000D02*
X161350000Y-89150000D01*
X161350000Y-89150000D02*
X161350000Y-92850000D01*
X101300000Y-78150000D02*
X101300000Y-80650000D01*
X101300000Y-78150000D02*
X105900000Y-78150000D01*
X105900000Y-80650000D02*
X101300000Y-80650000D01*
X105900000Y-80650000D02*
X105900000Y-78150000D01*
D11*
X164600000Y-73500000D02*
G75*
G03*
X164600000Y-73500000I-3100000J0D01*
G01*
M02*
