G04 #@! TF.GenerationSoftware,KiCad,Pcbnew,7.0.8*
G04 #@! TF.CreationDate,2023-11-03T14:19:20+02:00*
G04 #@! TF.ProjectId,TinyNumberHat,54696e79-4e75-46d6-9265-724861742e6b,rev?*
G04 #@! TF.SameCoordinates,Original*
G04 #@! TF.FileFunction,Other,User*
%FSLAX46Y46*%
G04 Gerber Fmt 4.6, Leading zero omitted, Abs format (unit mm)*
G04 Created by KiCad (PCBNEW 7.0.8) date 2023-11-03 14:19:20*
%MOMM*%
%LPD*%
G01*
G04 APERTURE LIST*
%ADD10C,0.150000*%
%ADD11C,0.050000*%
G04 APERTURE END LIST*
D10*
X164600000Y-96500000D02*
G75*
G03*
X164600000Y-96500000I-3100000J0D01*
G01*
X106600000Y-73500000D02*
G75*
G03*
X106600000Y-73500000I-3100000J0D01*
G01*
X106600000Y-96500000D02*
G75*
G03*
X106600000Y-96500000I-3100000J0D01*
G01*
X164600000Y-73500000D02*
G75*
G03*
X164600000Y-73500000I-3100000J0D01*
G01*
D11*
X158370000Y-70430000D02*
X106570000Y-70430000D01*
X106570000Y-70430000D02*
X106570000Y-76530000D01*
X158370000Y-76530000D02*
X158370000Y-70430000D01*
X106570000Y-76530000D02*
X158370000Y-76530000D01*
X123930000Y-88520000D02*
X122470000Y-88520000D01*
X122470000Y-88520000D02*
X122470000Y-91480000D01*
X123930000Y-91480000D02*
X123930000Y-88520000D01*
X122470000Y-91480000D02*
X123930000Y-91480000D01*
X162255000Y-88430000D02*
X162255000Y-86970000D01*
X162255000Y-86970000D02*
X159295000Y-86970000D01*
X159295000Y-88430000D02*
X162255000Y-88430000D01*
X159295000Y-86970000D02*
X159295000Y-88430000D01*
X103670000Y-82680000D02*
X105130000Y-82680000D01*
X105130000Y-82680000D02*
X105130000Y-79720000D01*
X103670000Y-79720000D02*
X103670000Y-82680000D01*
X105130000Y-79720000D02*
X103670000Y-79720000D01*
X162255000Y-85030000D02*
X162255000Y-83570000D01*
X162255000Y-83570000D02*
X159295000Y-83570000D01*
X159295000Y-85030000D02*
X162255000Y-85030000D01*
X159295000Y-83570000D02*
X159295000Y-85030000D01*
X162230000Y-86730000D02*
X162230000Y-85270000D01*
X162230000Y-85270000D02*
X159270000Y-85270000D01*
X159270000Y-86730000D02*
X162230000Y-86730000D01*
X159270000Y-85270000D02*
X159270000Y-86730000D01*
X142850000Y-78900000D02*
X124240000Y-78900000D01*
X124240000Y-78900000D02*
X124240000Y-90800000D01*
X142850000Y-90800000D02*
X142850000Y-78900000D01*
X124240000Y-90800000D02*
X142850000Y-90800000D01*
X162450000Y-91250000D02*
X162450000Y-89350000D01*
X162450000Y-89350000D02*
X158750000Y-89350000D01*
X158750000Y-91250000D02*
X162450000Y-91250000D01*
X158750000Y-89350000D02*
X158750000Y-91250000D01*
X108330000Y-90520000D02*
X106870000Y-90520000D01*
X106870000Y-90520000D02*
X106870000Y-93480000D01*
X108330000Y-93480000D02*
X108330000Y-90520000D01*
X106870000Y-93480000D02*
X108330000Y-93480000D01*
X109330000Y-87520000D02*
X107870000Y-87520000D01*
X107870000Y-87520000D02*
X107870000Y-90480000D01*
X109330000Y-90480000D02*
X109330000Y-87520000D01*
X107870000Y-90480000D02*
X109330000Y-90480000D01*
X107130000Y-87520000D02*
X105670000Y-87520000D01*
X105670000Y-87520000D02*
X105670000Y-90480000D01*
X107130000Y-90480000D02*
X107130000Y-87520000D01*
X105670000Y-90480000D02*
X107130000Y-90480000D01*
M02*
