G04 #@! TF.GenerationSoftware,KiCad,Pcbnew,7.0.8*
G04 #@! TF.CreationDate,2023-11-03T14:19:20+02:00*
G04 #@! TF.ProjectId,TinyNumberHat,54696e79-4e75-46d6-9265-724861742e6b,rev?*
G04 #@! TF.SameCoordinates,Original*
G04 #@! TF.FileFunction,Soldermask,Bot*
G04 #@! TF.FilePolarity,Negative*
%FSLAX46Y46*%
G04 Gerber Fmt 4.6, Leading zero omitted, Abs format (unit mm)*
G04 Created by KiCad (PCBNEW 7.0.8) date 2023-11-03 14:19:20*
%MOMM*%
%LPD*%
G01*
G04 APERTURE LIST*
G04 Aperture macros list*
%AMRoundRect*
0 Rectangle with rounded corners*
0 $1 Rounding radius*
0 $2 $3 $4 $5 $6 $7 $8 $9 X,Y pos of 4 corners*
0 Add a 4 corners polygon primitive as box body*
4,1,4,$2,$3,$4,$5,$6,$7,$8,$9,$2,$3,0*
0 Add four circle primitives for the rounded corners*
1,1,$1+$1,$2,$3*
1,1,$1+$1,$4,$5*
1,1,$1+$1,$6,$7*
1,1,$1+$1,$8,$9*
0 Add four rect primitives between the rounded corners*
20,1,$1+$1,$2,$3,$4,$5,0*
20,1,$1+$1,$4,$5,$6,$7,0*
20,1,$1+$1,$6,$7,$8,$9,0*
20,1,$1+$1,$8,$9,$2,$3,0*%
G04 Aperture macros list end*
%ADD10C,6.200000*%
%ADD11R,1.700000X1.700000*%
%ADD12O,1.700000X1.700000*%
%ADD13RoundRect,0.225000X-0.250000X0.225000X-0.250000X-0.225000X0.250000X-0.225000X0.250000X0.225000X0*%
%ADD14RoundRect,0.200000X0.200000X0.275000X-0.200000X0.275000X-0.200000X-0.275000X0.200000X-0.275000X0*%
%ADD15RoundRect,0.225000X0.250000X-0.225000X0.250000X0.225000X-0.250000X0.225000X-0.250000X-0.225000X0*%
%ADD16R,0.650000X2.100000*%
%ADD17RoundRect,0.250000X0.325000X0.450000X-0.325000X0.450000X-0.325000X-0.450000X0.325000X-0.450000X0*%
%ADD18RoundRect,0.200000X-0.275000X0.200000X-0.275000X-0.200000X0.275000X-0.200000X0.275000X0.200000X0*%
G04 APERTURE END LIST*
D10*
X161500000Y-96500000D03*
X103500000Y-73500000D03*
X103500000Y-96500000D03*
X161500000Y-73500000D03*
D11*
X108370000Y-74770000D03*
D12*
X108370000Y-72230000D03*
X110910000Y-74770000D03*
X110910000Y-72230000D03*
X113450000Y-74770000D03*
X113450000Y-72230000D03*
X115990000Y-74770000D03*
X115990000Y-72230000D03*
X118530000Y-74770000D03*
X118530000Y-72230000D03*
X121070000Y-74770000D03*
X121070000Y-72230000D03*
X123610000Y-74770000D03*
X123610000Y-72230000D03*
X126150000Y-74770000D03*
X126150000Y-72230000D03*
X128690000Y-74770000D03*
X128690000Y-72230000D03*
X131230000Y-74770000D03*
X131230000Y-72230000D03*
X133770000Y-74770000D03*
X133770000Y-72230000D03*
X136310000Y-74770000D03*
X136310000Y-72230000D03*
X138850000Y-74770000D03*
X138850000Y-72230000D03*
X141390000Y-74770000D03*
X141390000Y-72230000D03*
X143930000Y-74770000D03*
X143930000Y-72230000D03*
X146470000Y-74770000D03*
X146470000Y-72230000D03*
X149010000Y-74770000D03*
X149010000Y-72230000D03*
X151550000Y-74770000D03*
X151550000Y-72230000D03*
X154090000Y-74770000D03*
X154090000Y-72230000D03*
X156630000Y-74770000D03*
X156630000Y-72230000D03*
D13*
X123200000Y-89225000D03*
X123200000Y-90775000D03*
D14*
X161600000Y-87700000D03*
X159950000Y-87700000D03*
D15*
X104400000Y-81975000D03*
X104400000Y-80425000D03*
D14*
X161600000Y-84300000D03*
X159950000Y-84300000D03*
X161575000Y-86000000D03*
X159925000Y-86000000D03*
D16*
X125290000Y-80200000D03*
X126560000Y-80200000D03*
X127830000Y-80200000D03*
X129100000Y-80200000D03*
X130370000Y-80200000D03*
X131640000Y-80200000D03*
X132910000Y-80200000D03*
X134180000Y-80200000D03*
X135450000Y-80200000D03*
X136720000Y-80200000D03*
X137990000Y-80200000D03*
X139260000Y-80200000D03*
X140530000Y-80200000D03*
X141800000Y-80200000D03*
X141800000Y-89500000D03*
X140530000Y-89500000D03*
X139260000Y-89500000D03*
X137990000Y-89500000D03*
X136720000Y-89500000D03*
X135450000Y-89500000D03*
X134180000Y-89500000D03*
X132910000Y-89500000D03*
X131640000Y-89500000D03*
X130370000Y-89500000D03*
X129100000Y-89500000D03*
X127830000Y-89500000D03*
X126560000Y-89500000D03*
X125290000Y-89500000D03*
D17*
X161625000Y-90300000D03*
X159575000Y-90300000D03*
D13*
X107600000Y-91225000D03*
X107600000Y-92775000D03*
D18*
X108600000Y-88175000D03*
X108600000Y-89825000D03*
X106400000Y-88175000D03*
X106400000Y-89825000D03*
M02*
