G04 #@! TF.GenerationSoftware,KiCad,Pcbnew,7.0.8*
G04 #@! TF.CreationDate,2023-11-03T14:19:20+02:00*
G04 #@! TF.ProjectId,TinyNumberHat,54696e79-4e75-46d6-9265-724861742e6b,rev?*
G04 #@! TF.SameCoordinates,Original*
G04 #@! TF.FileFunction,Soldermask,Top*
G04 #@! TF.FilePolarity,Negative*
%FSLAX46Y46*%
G04 Gerber Fmt 4.6, Leading zero omitted, Abs format (unit mm)*
G04 Created by KiCad (PCBNEW 7.0.8) date 2023-11-03 14:19:20*
%MOMM*%
%LPD*%
G01*
G04 APERTURE LIST*
G04 Aperture macros list*
%AMRoundRect*
0 Rectangle with rounded corners*
0 $1 Rounding radius*
0 $2 $3 $4 $5 $6 $7 $8 $9 X,Y pos of 4 corners*
0 Add a 4 corners polygon primitive as box body*
4,1,4,$2,$3,$4,$5,$6,$7,$8,$9,$2,$3,0*
0 Add four circle primitives for the rounded corners*
1,1,$1+$1,$2,$3*
1,1,$1+$1,$4,$5*
1,1,$1+$1,$6,$7*
1,1,$1+$1,$8,$9*
0 Add four rect primitives between the rounded corners*
20,1,$1+$1,$2,$3,$4,$5,0*
20,1,$1+$1,$4,$5,$6,$7,0*
20,1,$1+$1,$6,$7,$8,$9,0*
20,1,$1+$1,$8,$9,$2,$3,0*%
G04 Aperture macros list end*
%ADD10R,0.500000X4.750000*%
%ADD11R,1.600000X1.400000*%
%ADD12RoundRect,0.200000X0.275000X-0.200000X0.275000X0.200000X-0.275000X0.200000X-0.275000X-0.200000X0*%
%ADD13R,1.550000X0.600000*%
%ADD14R,1.800000X1.200000*%
%ADD15RoundRect,0.200000X0.200000X0.275000X-0.200000X0.275000X-0.200000X-0.275000X0.200000X-0.275000X0*%
%ADD16RoundRect,0.200000X-0.200000X-0.275000X0.200000X-0.275000X0.200000X0.275000X-0.200000X0.275000X0*%
%ADD17C,6.200000*%
%ADD18RoundRect,0.250000X-0.412500X-1.100000X0.412500X-1.100000X0.412500X1.100000X-0.412500X1.100000X0*%
%ADD19RoundRect,0.250000X0.450000X-0.325000X0.450000X0.325000X-0.450000X0.325000X-0.450000X-0.325000X0*%
%ADD20R,1.000000X1.500000*%
%ADD21R,1.700000X1.700000*%
%ADD22O,1.700000X1.700000*%
G04 APERTURE END LIST*
D10*
X113900000Y-90300000D03*
X114900000Y-90300000D03*
X115900000Y-90300000D03*
X116900000Y-90300000D03*
X117900000Y-90300000D03*
X117900000Y-79300000D03*
X116900000Y-79300000D03*
X115900000Y-79300000D03*
X114900000Y-79300000D03*
X113900000Y-79300000D03*
D11*
X146500000Y-94200000D03*
X154500000Y-94200000D03*
X146500000Y-98700000D03*
X154500000Y-98700000D03*
X135500000Y-94200000D03*
X143500000Y-94200000D03*
X135500000Y-98700000D03*
X143500000Y-98700000D03*
D10*
X135900000Y-90300000D03*
X136900000Y-90300000D03*
X137900000Y-90300000D03*
X138900000Y-90300000D03*
X139900000Y-90300000D03*
X139900000Y-79300000D03*
X138900000Y-79300000D03*
X137900000Y-79300000D03*
X136900000Y-79300000D03*
X135900000Y-79300000D03*
X119400000Y-90300000D03*
X120400000Y-90300000D03*
X121400000Y-90300000D03*
X122400000Y-90300000D03*
X123400000Y-90300000D03*
X123400000Y-79300000D03*
X122400000Y-79300000D03*
X121400000Y-79300000D03*
X120400000Y-79300000D03*
X119400000Y-79300000D03*
D12*
X156800000Y-98625000D03*
X156800000Y-96975000D03*
D13*
X105000000Y-83500000D03*
X105000000Y-84500000D03*
X105000000Y-85500000D03*
X105000000Y-86500000D03*
D14*
X101125000Y-82200000D03*
X101125000Y-87800000D03*
D15*
X162225000Y-85800000D03*
X160575000Y-85800000D03*
X162250000Y-84200000D03*
X160600000Y-84200000D03*
D11*
X110500000Y-94200000D03*
X118500000Y-94200000D03*
X110500000Y-98700000D03*
X118500000Y-98700000D03*
X121500000Y-94200000D03*
X129500000Y-94200000D03*
X121500000Y-98700000D03*
X129500000Y-98700000D03*
D10*
X108400000Y-90300000D03*
X109400000Y-90300000D03*
X110400000Y-90300000D03*
X111400000Y-90300000D03*
X112400000Y-90300000D03*
X112400000Y-79300000D03*
X111400000Y-79300000D03*
X110400000Y-79300000D03*
X109400000Y-79300000D03*
X108400000Y-79300000D03*
D16*
X160550000Y-87400000D03*
X162200000Y-87400000D03*
D10*
X130400000Y-90300000D03*
X131400000Y-90300000D03*
X132400000Y-90300000D03*
X133400000Y-90300000D03*
X134400000Y-90300000D03*
X134400000Y-79300000D03*
X133400000Y-79300000D03*
X132400000Y-79300000D03*
X131400000Y-79300000D03*
X130400000Y-79300000D03*
X152400000Y-90300000D03*
X153400000Y-90300000D03*
X154400000Y-90300000D03*
X155400000Y-90300000D03*
X156400000Y-90300000D03*
X156400000Y-79300000D03*
X155400000Y-79300000D03*
X154400000Y-79300000D03*
X153400000Y-79300000D03*
X152400000Y-79300000D03*
D17*
X161500000Y-96500000D03*
X103500000Y-73500000D03*
D18*
X101237500Y-91200000D03*
X104362500Y-91200000D03*
D17*
X103500000Y-96500000D03*
D10*
X124900000Y-90300000D03*
X125900000Y-90300000D03*
X126900000Y-90300000D03*
X127900000Y-90300000D03*
X128900000Y-90300000D03*
X128900000Y-79300000D03*
X127900000Y-79300000D03*
X126900000Y-79300000D03*
X125900000Y-79300000D03*
X124900000Y-79300000D03*
D19*
X160400000Y-92025000D03*
X160400000Y-89975000D03*
D20*
X102300000Y-79400000D03*
X103600000Y-79400000D03*
X104900000Y-79400000D03*
D10*
X141400000Y-90300000D03*
X142400000Y-90300000D03*
X143400000Y-90300000D03*
X144400000Y-90300000D03*
X145400000Y-90300000D03*
X145400000Y-79300000D03*
X144400000Y-79300000D03*
X143400000Y-79300000D03*
X142400000Y-79300000D03*
X141400000Y-79300000D03*
D17*
X161500000Y-73500000D03*
D10*
X146900000Y-90300000D03*
X147900000Y-90300000D03*
X148900000Y-90300000D03*
X149900000Y-90300000D03*
X150900000Y-90300000D03*
X150900000Y-79300000D03*
X149900000Y-79300000D03*
X148900000Y-79300000D03*
X147900000Y-79300000D03*
X146900000Y-79300000D03*
D21*
X108370000Y-74770000D03*
D22*
X108370000Y-72230000D03*
X110910000Y-74770000D03*
X110910000Y-72230000D03*
X113450000Y-74770000D03*
X113450000Y-72230000D03*
X115990000Y-74770000D03*
X115990000Y-72230000D03*
X118530000Y-74770000D03*
X118530000Y-72230000D03*
X121070000Y-74770000D03*
X121070000Y-72230000D03*
X123610000Y-74770000D03*
X123610000Y-72230000D03*
X126150000Y-74770000D03*
X126150000Y-72230000D03*
X128690000Y-74770000D03*
X128690000Y-72230000D03*
X131230000Y-74770000D03*
X131230000Y-72230000D03*
X133770000Y-74770000D03*
X133770000Y-72230000D03*
X136310000Y-74770000D03*
X136310000Y-72230000D03*
X138850000Y-74770000D03*
X138850000Y-72230000D03*
X141390000Y-74770000D03*
X141390000Y-72230000D03*
X143930000Y-74770000D03*
X143930000Y-72230000D03*
X146470000Y-74770000D03*
X146470000Y-72230000D03*
X149010000Y-74770000D03*
X149010000Y-72230000D03*
X151550000Y-74770000D03*
X151550000Y-72230000D03*
X154090000Y-74770000D03*
X154090000Y-72230000D03*
X156630000Y-74770000D03*
X156630000Y-72230000D03*
M02*
