M48
; DRILL file {KiCad 7.0.8} date Fri Nov  3 14:19:18 2023
; FORMAT={-:-/ absolute / inch / decimal}
; #@! TF.CreationDate,2023-11-03T14:19:18+02:00
; #@! TF.GenerationSoftware,Kicad,Pcbnew,7.0.8
; #@! TF.FileFunction,Plated,1,4,PTH
FMAT,2
INCH
; #@! TA.AperFunction,Plated,PTH,ViaDrill
T1C0.0157
; #@! TA.AperFunction,Plated,PTH,ComponentDrill
T2C0.0394
%
G90
G05
T1
X3.9764Y-3.1575
X4.0236Y-3.0787
X4.0236Y-3.2835
X4.0236Y-3.3268
X4.0394Y-3.2362
X4.0394Y-3.4567
X4.063Y-3.2835
X4.0709Y-3.3268
X4.1417Y-3.0866
X4.1654Y-3.063
X4.189Y-3.3701
X4.189Y-3.4094
X4.2562Y-3.3093
X4.2657Y-3.4183
X4.2742Y-3.3737
X4.2756Y-3.8504
X4.2944Y-3.808
X4.3001Y-3.7694
X4.3039Y-3.3462
X4.3083Y-3.2975
X4.3415Y-3.772
X4.3465Y-3.3071
X4.3858Y-3.438
X4.3864Y-3.3086
X4.4173Y-3.3809
X4.4252Y-3.9134
X4.4409Y-3.7087
X4.4724Y-3.3465
X4.4724Y-3.3937
X4.4882Y-3.2283
X4.5118Y-3.3465
X4.5118Y-3.7402
X4.5197Y-3.0
X4.5257Y-3.4254
X4.5433Y-3.383
X4.5669Y-3.3415
X4.5899Y-3.4448
X4.5984Y-3.7795
X4.6683Y-3.4331
X4.6693Y-3.7874
X4.6904Y-3.2549
X4.7087Y-3.4252
X4.7165Y-3.0
X4.7226Y-3.2864
X4.7268Y-3.8419
X4.7361Y-3.4371
X4.7612Y-3.2618
X4.7884Y-3.795
X4.8463Y-3.7405
X4.8504Y-3.2441
X4.8504Y-3.4281
X4.8527Y-3.375
X4.8647Y-3.3396
X4.871Y-3.7124
X4.8819Y-3.8898
X4.9075Y-3.861
X4.9289Y-3.3131
X4.9291Y-3.2435
X4.9376Y-3.4337
X4.9449Y-3.8898
X4.9459Y-3.3655
X4.9764Y-3.2441
X4.9947Y-3.422
X5.0074Y-3.8583
X5.0154Y-3.0052
X5.0157Y-3.748
X5.0354Y-3.2441
X5.0472Y-3.7087
X5.0564Y-3.3622
X5.0709Y-3.0049
X5.0879Y-3.4368
X5.1248Y-2.9905
X5.1686Y-3.751
X5.1752Y-3.6811
X5.1799Y-3.2727
X5.2126Y-3.0079
X5.2126Y-3.4016
X5.2441Y-3.2882
X5.252Y-3.4291
X5.2732Y-3.6885
X5.2835Y-3.7244
X5.3057Y-3.4203
X5.3093Y-3.0066
X5.3858Y-3.7894
X5.3935Y-3.2625
X5.3937Y-3.7165
X5.3954Y-3.8981
X5.4071Y-3.6714
X5.4213Y-2.979
X5.4252Y-3.2392
X5.4346Y-3.8981
X5.4391Y-3.8415
X5.4486Y-3.3672
X5.4615Y-3.6977
X5.4853Y-3.7728
X5.4951Y-3.3278
X5.5127Y-2.9991
X5.5129Y-3.4365
X5.5522Y-3.438
X5.5544Y-3.3334
X5.5589Y-3.819
X5.5748Y-3.8583
X5.5904Y-3.2795
X5.6097Y-3.438
X5.61Y-3.3524
X5.6379Y-3.3809
X5.6535Y-3.2283
X5.6535Y-3.8346
X5.685Y-3.2598
X5.6874Y-3.3346
X5.7087Y-3.8563
X5.7244Y-3.0118
X5.7247Y-3.6584
X5.7539Y-3.2286
X5.7638Y-3.3319
X5.7717Y-3.4252
X5.811Y-3.0
X5.8189Y-3.7717
X5.8212Y-3.3034
X5.8475Y-3.6821
X5.8583Y-3.4173
X5.8595Y-3.7419
X5.8604Y-3.3081
X5.8997Y-3.3081
X5.9134Y-3.7394
X5.9391Y-3.3081
X5.9449Y-3.8031
X5.965Y-3.7348
X6.0Y-3.2441
X6.0157Y-3.7795
X6.0305Y-3.3105
X6.0679Y-3.2889
X6.0787Y-3.4094
X6.0817Y-3.3583
X6.0963Y-3.8096
X6.1267Y-3.2358
X6.1339Y-3.3622
X6.1404Y-3.7433
X6.1575Y-3.4252
X6.189Y-3.5827
X6.1969Y-3.4646
X6.2205Y-3.5039
X6.2323Y-3.5551
X6.2362Y-3.126
X6.2362Y-3.3228
X6.2362Y-3.3858
X6.2362Y-3.4528
X6.2598Y-3.4882
X6.4409Y-3.315
X6.4409Y-3.5984
X6.4409Y-3.6614
X6.4488Y-3.378
X6.4488Y-3.4409
X6.4567Y-3.0315
T2
X4.2665Y-2.8437
X4.2665Y-2.9437
X4.3665Y-2.8437
X4.3665Y-2.9437
X4.4665Y-2.8437
X4.4665Y-2.9437
X4.5665Y-2.8437
X4.5665Y-2.9437
X4.6665Y-2.8437
X4.6665Y-2.9437
X4.7665Y-2.8437
X4.7665Y-2.9437
X4.8665Y-2.8437
X4.8665Y-2.9437
X4.9665Y-2.8437
X4.9665Y-2.9437
X5.0665Y-2.8437
X5.0665Y-2.9437
X5.1665Y-2.8437
X5.1665Y-2.9437
X5.2665Y-2.8437
X5.2665Y-2.9437
X5.3665Y-2.8437
X5.3665Y-2.9437
X5.4665Y-2.8437
X5.4665Y-2.9437
X5.5665Y-2.8437
X5.5665Y-2.9437
X5.6665Y-2.8437
X5.6665Y-2.9437
X5.7665Y-2.8437
X5.7665Y-2.9437
X5.8665Y-2.8437
X5.8665Y-2.9437
X5.9665Y-2.8437
X5.9665Y-2.9437
X6.0665Y-2.8437
X6.0665Y-2.9437
X6.1665Y-2.8437
X6.1665Y-2.9437
T0
M30
