G04 #@! TF.GenerationSoftware,KiCad,Pcbnew,7.0.8*
G04 #@! TF.CreationDate,2023-11-03T14:19:20+02:00*
G04 #@! TF.ProjectId,TinyNumberHat,54696e79-4e75-46d6-9265-724861742e6b,rev?*
G04 #@! TF.SameCoordinates,Original*
G04 #@! TF.FileFunction,Legend,Bot*
G04 #@! TF.FilePolarity,Positive*
%FSLAX46Y46*%
G04 Gerber Fmt 4.6, Leading zero omitted, Abs format (unit mm)*
G04 Created by KiCad (PCBNEW 7.0.8) date 2023-11-03 14:19:20*
%MOMM*%
%LPD*%
G01*
G04 APERTURE LIST*
%ADD10C,0.150000*%
%ADD11C,0.300000*%
%ADD12C,0.120000*%
%ADD13C,0.200000*%
G04 APERTURE END LIST*
D10*
G36*
X154538083Y-78659879D02*
G01*
X154539654Y-78660502D01*
X154540334Y-78660276D01*
X154541792Y-78660533D01*
X154751372Y-78660533D01*
X154823324Y-78724490D01*
X154885132Y-78889312D01*
X154906684Y-79061723D01*
X154886886Y-79220101D01*
X154841092Y-79272438D01*
X154665545Y-79272438D01*
X154600807Y-79214894D01*
X154531280Y-78658679D01*
X154538083Y-78659879D01*
G37*
G36*
X156704276Y-78153061D02*
G01*
X156766085Y-78317885D01*
X156797133Y-78566266D01*
X156455859Y-78436257D01*
X156438803Y-78299818D01*
X156458601Y-78141440D01*
X156504396Y-78089104D01*
X156632324Y-78089104D01*
X156704276Y-78153061D01*
G37*
G36*
X158269334Y-79708152D02*
G01*
X144266048Y-79708152D01*
X144266048Y-79267800D01*
X144551762Y-79267800D01*
X144554426Y-79274393D01*
X144554400Y-79277166D01*
X144556654Y-79279907D01*
X144561522Y-79291950D01*
X144621046Y-79387188D01*
X144629009Y-79393408D01*
X144633616Y-79402400D01*
X144641250Y-79405621D01*
X144646517Y-79412023D01*
X144654821Y-79413570D01*
X144661477Y-79418769D01*
X144671573Y-79418415D01*
X144680884Y-79422344D01*
X144688804Y-79419903D01*
X144696952Y-79421422D01*
X144704308Y-79417269D01*
X144712748Y-79416974D01*
X144720256Y-79410212D01*
X144729912Y-79407237D01*
X144734409Y-79400278D01*
X144741629Y-79396203D01*
X144748232Y-79385017D01*
X144750870Y-79382642D01*
X144751255Y-79379896D01*
X144754871Y-79373772D01*
X144790585Y-79278534D01*
X144790689Y-79267800D01*
X153408907Y-79267800D01*
X153411571Y-79274393D01*
X153411545Y-79277166D01*
X153413799Y-79279907D01*
X153418667Y-79291950D01*
X153478191Y-79387188D01*
X153486154Y-79393408D01*
X153490761Y-79402400D01*
X153498395Y-79405621D01*
X153503662Y-79412023D01*
X153511966Y-79413570D01*
X153518622Y-79418769D01*
X153528718Y-79418415D01*
X153538029Y-79422344D01*
X153545949Y-79419903D01*
X153554097Y-79421422D01*
X153561453Y-79417269D01*
X153569893Y-79416974D01*
X153577401Y-79410212D01*
X153587057Y-79407237D01*
X153591554Y-79400278D01*
X153598774Y-79396203D01*
X153605377Y-79385017D01*
X153608015Y-79382642D01*
X153608400Y-79379896D01*
X153612016Y-79373772D01*
X153647730Y-79278534D01*
X153647934Y-79257467D01*
X153650865Y-79236601D01*
X153648200Y-79230007D01*
X153648227Y-79227234D01*
X153645971Y-79224491D01*
X153641105Y-79212451D01*
X153581582Y-79117212D01*
X153573619Y-79110991D01*
X153569012Y-79101998D01*
X153561376Y-79098776D01*
X153556111Y-79092376D01*
X153547807Y-79090828D01*
X153541152Y-79085630D01*
X153531054Y-79085983D01*
X153521744Y-79082055D01*
X153513822Y-79084495D01*
X153505676Y-79082978D01*
X153498322Y-79087128D01*
X153489881Y-79087424D01*
X153482371Y-79094186D01*
X153472715Y-79097162D01*
X153468216Y-79104121D01*
X153460999Y-79108196D01*
X153454396Y-79119379D01*
X153451758Y-79121756D01*
X153451372Y-79124503D01*
X153447757Y-79130627D01*
X153412042Y-79225865D01*
X153411837Y-79246933D01*
X153408907Y-79267800D01*
X144790689Y-79267800D01*
X144790789Y-79257467D01*
X144793720Y-79236601D01*
X144791055Y-79230007D01*
X144791082Y-79227234D01*
X144788826Y-79224491D01*
X144783960Y-79212451D01*
X144724437Y-79117212D01*
X144716474Y-79110991D01*
X144711867Y-79101998D01*
X144704231Y-79098776D01*
X144698966Y-79092376D01*
X144690662Y-79090828D01*
X144684007Y-79085630D01*
X144673909Y-79085983D01*
X144664599Y-79082055D01*
X144656677Y-79084495D01*
X144648531Y-79082978D01*
X144641177Y-79087128D01*
X144632736Y-79087424D01*
X144625226Y-79094186D01*
X144615570Y-79097162D01*
X144611071Y-79104121D01*
X144603854Y-79108196D01*
X144597251Y-79119379D01*
X144594613Y-79121756D01*
X144594227Y-79124503D01*
X144590612Y-79130627D01*
X144554897Y-79225865D01*
X144554692Y-79246933D01*
X144551762Y-79267800D01*
X144266048Y-79267800D01*
X144266048Y-78220180D01*
X153277955Y-78220180D01*
X153280619Y-78226773D01*
X153280593Y-78229547D01*
X153282848Y-78232288D01*
X153287715Y-78244330D01*
X153347239Y-78339569D01*
X153355202Y-78345789D01*
X153359809Y-78354782D01*
X153367444Y-78358003D01*
X153372710Y-78364404D01*
X153381013Y-78365951D01*
X153387669Y-78371150D01*
X153397766Y-78370796D01*
X153407077Y-78374725D01*
X153414997Y-78372284D01*
X153423146Y-78373803D01*
X153430500Y-78369651D01*
X153438941Y-78369356D01*
X153446450Y-78362593D01*
X153456106Y-78359618D01*
X153460603Y-78352658D01*
X153467822Y-78348584D01*
X153474425Y-78337398D01*
X153477063Y-78335023D01*
X153477448Y-78332277D01*
X153481064Y-78326153D01*
X153516778Y-78230914D01*
X153516982Y-78209846D01*
X153519913Y-78188980D01*
X153517248Y-78182386D01*
X153517275Y-78179613D01*
X153515019Y-78176871D01*
X153510153Y-78164830D01*
X153450629Y-78069592D01*
X153442666Y-78063372D01*
X153438059Y-78054379D01*
X153430423Y-78051157D01*
X153425158Y-78044757D01*
X153416853Y-78043209D01*
X153410198Y-78038011D01*
X153400101Y-78038364D01*
X153390791Y-78034436D01*
X153382869Y-78036876D01*
X153374723Y-78035359D01*
X153367369Y-78039509D01*
X153358927Y-78039805D01*
X153351417Y-78046567D01*
X153341762Y-78049543D01*
X153337263Y-78056503D01*
X153330046Y-78060577D01*
X153323442Y-78071762D01*
X153320805Y-78074138D01*
X153320419Y-78076883D01*
X153316804Y-78083008D01*
X153281090Y-78178246D01*
X153280885Y-78199313D01*
X153277955Y-78220180D01*
X144266048Y-78220180D01*
X144266048Y-77356741D01*
X153741180Y-77356741D01*
X153954303Y-79061723D01*
X153934505Y-79220101D01*
X153866301Y-79298050D01*
X153847760Y-79345886D01*
X153864305Y-79394448D01*
X153908195Y-79421013D01*
X153958891Y-79413152D01*
X153979187Y-79396826D01*
X154062520Y-79301588D01*
X154065923Y-79292805D01*
X154072828Y-79286396D01*
X154080498Y-79261503D01*
X154104308Y-79071026D01*
X154103542Y-79067675D01*
X154104308Y-79052420D01*
X154011396Y-78309122D01*
X154336418Y-78309122D01*
X154467371Y-79356741D01*
X154490762Y-79402401D01*
X154538030Y-79422344D01*
X154587059Y-79407237D01*
X154589013Y-79404212D01*
X154600455Y-79408749D01*
X154611378Y-79417915D01*
X154633321Y-79421784D01*
X154634892Y-79422407D01*
X154635572Y-79422181D01*
X154637030Y-79422438D01*
X154875125Y-79422438D01*
X154892744Y-79416024D01*
X154911272Y-79413152D01*
X154920060Y-79406082D01*
X154923334Y-79404891D01*
X154924888Y-79402199D01*
X154931568Y-79396826D01*
X155014901Y-79301588D01*
X155018304Y-79292805D01*
X155025209Y-79286396D01*
X155032879Y-79261503D01*
X155056689Y-79071026D01*
X155055923Y-79067675D01*
X155056689Y-79052420D01*
X155032879Y-78861944D01*
X155031272Y-78858808D01*
X155028683Y-78844913D01*
X154957255Y-78654437D01*
X154953798Y-78650397D01*
X154953025Y-78645138D01*
X154936857Y-78624715D01*
X154829714Y-78529477D01*
X154816461Y-78524221D01*
X154805539Y-78515056D01*
X154783595Y-78511186D01*
X154782025Y-78510564D01*
X154781344Y-78510789D01*
X154779887Y-78510533D01*
X154570307Y-78510533D01*
X154505569Y-78452988D01*
X154486422Y-78299819D01*
X154506220Y-78141440D01*
X154552015Y-78089104D01*
X154679943Y-78089104D01*
X154765774Y-78165398D01*
X154813463Y-78184311D01*
X154862153Y-78168147D01*
X154889060Y-78124466D01*
X154881596Y-78073709D01*
X154865428Y-78053286D01*
X154831814Y-78023407D01*
X155205465Y-78023407D01*
X155372132Y-79356740D01*
X155395523Y-79402401D01*
X155442791Y-79422344D01*
X155491820Y-79407237D01*
X155519667Y-79364150D01*
X155520974Y-79338135D01*
X155354307Y-78004801D01*
X155352401Y-78001080D01*
X155539359Y-78001080D01*
X155548268Y-78051604D01*
X155587568Y-78084581D01*
X155613220Y-78089104D01*
X155679943Y-78089104D01*
X155757715Y-78158234D01*
X155807539Y-78237953D01*
X155873227Y-78413123D01*
X155991180Y-79356740D01*
X156014571Y-79402401D01*
X156061839Y-79422344D01*
X156110868Y-79407237D01*
X156138715Y-79364150D01*
X156140022Y-79338135D01*
X156011395Y-78309122D01*
X156288799Y-78309122D01*
X156312609Y-78499597D01*
X156313246Y-78500841D01*
X156312983Y-78502216D01*
X156324878Y-78523548D01*
X156336000Y-78545258D01*
X156337287Y-78545801D01*
X156337969Y-78547023D01*
X156360330Y-78560382D01*
X156818200Y-78734807D01*
X156859065Y-79061722D01*
X156839267Y-79220101D01*
X156793473Y-79272438D01*
X156665545Y-79272438D01*
X156579714Y-79196144D01*
X156532025Y-79177231D01*
X156483335Y-79193395D01*
X156456428Y-79237076D01*
X156463892Y-79287833D01*
X156480060Y-79308256D01*
X156587203Y-79403494D01*
X156600455Y-79408749D01*
X156611378Y-79417915D01*
X156633321Y-79421784D01*
X156634892Y-79422407D01*
X156635572Y-79422181D01*
X156637030Y-79422438D01*
X156827506Y-79422438D01*
X156845125Y-79416024D01*
X156863653Y-79413152D01*
X156872441Y-79406082D01*
X156875715Y-79404891D01*
X156877269Y-79402199D01*
X156883949Y-79396826D01*
X156967282Y-79301588D01*
X156970685Y-79292805D01*
X156977590Y-79286396D01*
X156985260Y-79261503D01*
X157009070Y-79071026D01*
X157008303Y-79067673D01*
X157009070Y-79052420D01*
X156913832Y-78290516D01*
X156912225Y-78287379D01*
X156909636Y-78273485D01*
X156838207Y-78083008D01*
X156834750Y-78078968D01*
X156833977Y-78073709D01*
X156817809Y-78053286D01*
X156710666Y-77958048D01*
X156697413Y-77952792D01*
X156686491Y-77943627D01*
X156664547Y-77939757D01*
X156662977Y-77939135D01*
X156662296Y-77939360D01*
X156660839Y-77939104D01*
X156470363Y-77939104D01*
X156452744Y-77945516D01*
X156434215Y-77948390D01*
X156425426Y-77955459D01*
X156422154Y-77956651D01*
X156420600Y-77959342D01*
X156413920Y-77964716D01*
X156330587Y-78059954D01*
X156327182Y-78068737D01*
X156320279Y-78075147D01*
X156312609Y-78100040D01*
X156288799Y-78290516D01*
X156289564Y-78293866D01*
X156288799Y-78309122D01*
X156011395Y-78309122D01*
X155973355Y-78004801D01*
X155949964Y-77959141D01*
X155902696Y-77939198D01*
X155853667Y-77954305D01*
X155825819Y-77997392D01*
X155824824Y-78017194D01*
X155758285Y-77958048D01*
X155745032Y-77952792D01*
X155734110Y-77943627D01*
X155712166Y-77939757D01*
X155710596Y-77939135D01*
X155709915Y-77939360D01*
X155708458Y-77939104D01*
X155613220Y-77939104D01*
X155565011Y-77956651D01*
X155539359Y-78001080D01*
X155352401Y-78001080D01*
X155330916Y-77959141D01*
X155283648Y-77939198D01*
X155234619Y-77954305D01*
X155206771Y-77997392D01*
X155205465Y-78023407D01*
X154831814Y-78023407D01*
X154758285Y-77958048D01*
X154745032Y-77952792D01*
X154734110Y-77943627D01*
X154712166Y-77939757D01*
X154710596Y-77939135D01*
X154709915Y-77939360D01*
X154708458Y-77939104D01*
X154517982Y-77939104D01*
X154500363Y-77945516D01*
X154481834Y-77948390D01*
X154473045Y-77955459D01*
X154469773Y-77956651D01*
X154468219Y-77959342D01*
X154461539Y-77964716D01*
X154378206Y-78059954D01*
X154374801Y-78068737D01*
X154367898Y-78075147D01*
X154360228Y-78100040D01*
X154336418Y-78290516D01*
X154337183Y-78293866D01*
X154336418Y-78309122D01*
X154011396Y-78309122D01*
X153905040Y-77458276D01*
X155087479Y-77458276D01*
X155090143Y-77464869D01*
X155090117Y-77467643D01*
X155092372Y-77470384D01*
X155097239Y-77482426D01*
X155156763Y-77577664D01*
X155164726Y-77583884D01*
X155169333Y-77592877D01*
X155176968Y-77596098D01*
X155182234Y-77602499D01*
X155190538Y-77604046D01*
X155197194Y-77609245D01*
X155207289Y-77608891D01*
X155216601Y-77612820D01*
X155224521Y-77610379D01*
X155232669Y-77611898D01*
X155240025Y-77607745D01*
X155248465Y-77607450D01*
X155255972Y-77600688D01*
X155265630Y-77597713D01*
X155270128Y-77590753D01*
X155277346Y-77586679D01*
X155283949Y-77575493D01*
X155286587Y-77573118D01*
X155286972Y-77570372D01*
X155290588Y-77564248D01*
X155326302Y-77469010D01*
X155326506Y-77447942D01*
X155329437Y-77427076D01*
X155328423Y-77424567D01*
X157040439Y-77424567D01*
X157045826Y-77475586D01*
X157082747Y-77511206D01*
X157133927Y-77514761D01*
X157157333Y-77503331D01*
X157268562Y-77422438D01*
X157453753Y-77422438D01*
X157531525Y-77491568D01*
X157581349Y-77571287D01*
X157647037Y-77746455D01*
X157668589Y-77918866D01*
X157647037Y-78091276D01*
X157619216Y-78165465D01*
X157553910Y-78240102D01*
X157387450Y-78328880D01*
X157387105Y-78329264D01*
X157386596Y-78329343D01*
X157366301Y-78345669D01*
X157282968Y-78440907D01*
X157282809Y-78441315D01*
X157282429Y-78441530D01*
X157269186Y-78463961D01*
X157233471Y-78559198D01*
X157233436Y-78562723D01*
X157229275Y-78576231D01*
X157205466Y-78766707D01*
X157206232Y-78770059D01*
X157205466Y-78785311D01*
X157229275Y-78975787D01*
X157230881Y-78978922D01*
X157233471Y-78992819D01*
X157304901Y-79183296D01*
X157307179Y-79185958D01*
X157311525Y-79196711D01*
X157371049Y-79291950D01*
X157373313Y-79293719D01*
X157384822Y-79308256D01*
X157491965Y-79403494D01*
X157505217Y-79408749D01*
X157516140Y-79417915D01*
X157538083Y-79421784D01*
X157539654Y-79422407D01*
X157540334Y-79422181D01*
X157541792Y-79422438D01*
X157779887Y-79422438D01*
X157789930Y-79418782D01*
X157800594Y-79419523D01*
X157824000Y-79408093D01*
X157954952Y-79312855D01*
X157983620Y-79270309D01*
X157978233Y-79219290D01*
X157941312Y-79183669D01*
X157890132Y-79180115D01*
X157866726Y-79191545D01*
X157755498Y-79272438D01*
X157570307Y-79272438D01*
X157492534Y-79203307D01*
X157442709Y-79123587D01*
X157377021Y-78948419D01*
X157355470Y-78776009D01*
X157377021Y-78603599D01*
X157404842Y-78529410D01*
X157470147Y-78454775D01*
X157636610Y-78365996D01*
X157636954Y-78365611D01*
X157637464Y-78365533D01*
X157657760Y-78349206D01*
X157741093Y-78253967D01*
X157741250Y-78253560D01*
X157741632Y-78253345D01*
X157754874Y-78230914D01*
X157790588Y-78135676D01*
X157790622Y-78132152D01*
X157794784Y-78118645D01*
X157818594Y-77928169D01*
X157817828Y-77924818D01*
X157818594Y-77909563D01*
X157794784Y-77719087D01*
X157793177Y-77715951D01*
X157790588Y-77702056D01*
X157719160Y-77511580D01*
X157716880Y-77508916D01*
X157712535Y-77498164D01*
X157653011Y-77402926D01*
X157650746Y-77401157D01*
X157639238Y-77386620D01*
X157532095Y-77291382D01*
X157518842Y-77286126D01*
X157507920Y-77276961D01*
X157485976Y-77273091D01*
X157484406Y-77272469D01*
X157483725Y-77272694D01*
X157482268Y-77272438D01*
X157244173Y-77272438D01*
X157234129Y-77276093D01*
X157223467Y-77275353D01*
X157200061Y-77286783D01*
X157069107Y-77382021D01*
X157040439Y-77424567D01*
X155328423Y-77424567D01*
X155326772Y-77420482D01*
X155326799Y-77417710D01*
X155324544Y-77414968D01*
X155319677Y-77402926D01*
X155260153Y-77307688D01*
X155252190Y-77301468D01*
X155247583Y-77292475D01*
X155239947Y-77289253D01*
X155234682Y-77282853D01*
X155226377Y-77281305D01*
X155219722Y-77276107D01*
X155209625Y-77276460D01*
X155200315Y-77272532D01*
X155192393Y-77274972D01*
X155184247Y-77273455D01*
X155176893Y-77277605D01*
X155168451Y-77277901D01*
X155160941Y-77284663D01*
X155151286Y-77287639D01*
X155146787Y-77294599D01*
X155139570Y-77298673D01*
X155132966Y-77309858D01*
X155130329Y-77312234D01*
X155129943Y-77314979D01*
X155126328Y-77321104D01*
X155090614Y-77416342D01*
X155090409Y-77437409D01*
X155087479Y-77458276D01*
X153905040Y-77458276D01*
X153890022Y-77338135D01*
X153866631Y-77292475D01*
X153819363Y-77272532D01*
X153770334Y-77287639D01*
X153742486Y-77330726D01*
X153741180Y-77356741D01*
X144266048Y-77356741D01*
X144266048Y-76986724D01*
X158269334Y-76986724D01*
X158269334Y-79708152D01*
G37*
X138984649Y-98946009D02*
X138776316Y-98993628D01*
X138776316Y-98993628D02*
X138710839Y-99041247D01*
X138710839Y-99041247D02*
X138651316Y-99136485D01*
X138651316Y-99136485D02*
X138669173Y-99279342D01*
X138669173Y-99279342D02*
X138752506Y-99374580D01*
X138752506Y-99374580D02*
X138829887Y-99422200D01*
X138829887Y-99422200D02*
X138978696Y-99469819D01*
X138978696Y-99469819D02*
X139550125Y-99469819D01*
X139550125Y-99469819D02*
X139425125Y-98469819D01*
X139425125Y-98469819D02*
X138925125Y-98469819D01*
X138925125Y-98469819D02*
X138788220Y-98517438D01*
X138788220Y-98517438D02*
X138722744Y-98565057D01*
X138722744Y-98565057D02*
X138663220Y-98660295D01*
X138663220Y-98660295D02*
X138675125Y-98755533D01*
X138675125Y-98755533D02*
X138758458Y-98850771D01*
X138758458Y-98850771D02*
X138835839Y-98898390D01*
X138835839Y-98898390D02*
X138984649Y-98946009D01*
X138984649Y-98946009D02*
X139484649Y-98946009D01*
X138109649Y-98803152D02*
X137835839Y-99469819D01*
X137395363Y-98803152D02*
X137835839Y-99469819D01*
X137835839Y-99469819D02*
X138008458Y-99707914D01*
X138008458Y-99707914D02*
X138085839Y-99755533D01*
X138085839Y-99755533D02*
X138234649Y-99803152D01*
X135800125Y-99184104D02*
X135085840Y-99184104D01*
X135978697Y-99469819D02*
X135353697Y-98469819D01*
X135353697Y-98469819D02*
X134978697Y-99469819D01*
X134478697Y-99469819D02*
X134353697Y-98469819D01*
X134353697Y-98469819D02*
X133996554Y-98469819D01*
X133996554Y-98469819D02*
X133788221Y-98517438D01*
X133788221Y-98517438D02*
X133657268Y-98612676D01*
X133657268Y-98612676D02*
X133597745Y-98707914D01*
X133597745Y-98707914D02*
X133550126Y-98898390D01*
X133550126Y-98898390D02*
X133567983Y-99041247D01*
X133567983Y-99041247D02*
X133663221Y-99231723D01*
X133663221Y-99231723D02*
X133746554Y-99326961D01*
X133746554Y-99326961D02*
X133901316Y-99422200D01*
X133901316Y-99422200D02*
X134121554Y-99469819D01*
X134121554Y-99469819D02*
X134478697Y-99469819D01*
X132121554Y-99469819D02*
X132562030Y-98993628D01*
X132978697Y-99469819D02*
X132853697Y-98469819D01*
X132853697Y-98469819D02*
X132282268Y-98469819D01*
X132282268Y-98469819D02*
X132145364Y-98517438D01*
X132145364Y-98517438D02*
X132079888Y-98565057D01*
X132079888Y-98565057D02*
X132020364Y-98660295D01*
X132020364Y-98660295D02*
X132038221Y-98803152D01*
X132038221Y-98803152D02*
X132121554Y-98898390D01*
X132121554Y-98898390D02*
X132198935Y-98946009D01*
X132198935Y-98946009D02*
X132347745Y-98993628D01*
X132347745Y-98993628D02*
X132919173Y-98993628D01*
X131413221Y-98946009D02*
X130913221Y-98946009D01*
X130764411Y-99469819D02*
X131478697Y-99469819D01*
X131478697Y-99469819D02*
X131353697Y-98469819D01*
X131353697Y-98469819D02*
X130639411Y-98469819D01*
X111881077Y-98803152D02*
X111726316Y-99469819D01*
X111726316Y-99469819D02*
X111404887Y-98803152D01*
X110720363Y-99422200D02*
X110821553Y-99469819D01*
X110821553Y-99469819D02*
X111012030Y-99469819D01*
X111012030Y-99469819D02*
X111101315Y-99422200D01*
X111101315Y-99422200D02*
X111137030Y-99326961D01*
X111137030Y-99326961D02*
X111089411Y-98946009D01*
X111089411Y-98946009D02*
X111029887Y-98850771D01*
X111029887Y-98850771D02*
X110928696Y-98803152D01*
X110928696Y-98803152D02*
X110738220Y-98803152D01*
X110738220Y-98803152D02*
X110648934Y-98850771D01*
X110648934Y-98850771D02*
X110613220Y-98946009D01*
X110613220Y-98946009D02*
X110625125Y-99041247D01*
X110625125Y-99041247D02*
X111113220Y-99136485D01*
X110250125Y-99469819D02*
X110166791Y-98803152D01*
X110190601Y-98993628D02*
X110131077Y-98898390D01*
X110131077Y-98898390D02*
X110077506Y-98850771D01*
X110077506Y-98850771D02*
X109976315Y-98803152D01*
X109976315Y-98803152D02*
X109881077Y-98803152D01*
X108345362Y-99469819D02*
X108916791Y-99469819D01*
X108631076Y-99469819D02*
X108506076Y-98469819D01*
X108506076Y-98469819D02*
X108619172Y-98612676D01*
X108619172Y-98612676D02*
X108726315Y-98707914D01*
X108726315Y-98707914D02*
X108827505Y-98755533D01*
X107904886Y-99374580D02*
X107863219Y-99422200D01*
X107863219Y-99422200D02*
X107916791Y-99469819D01*
X107916791Y-99469819D02*
X107958457Y-99422200D01*
X107958457Y-99422200D02*
X107904886Y-99374580D01*
X107904886Y-99374580D02*
X107916791Y-99469819D01*
X107125124Y-98469819D02*
X107029886Y-98469819D01*
X107029886Y-98469819D02*
X106940601Y-98517438D01*
X106940601Y-98517438D02*
X106898934Y-98565057D01*
X106898934Y-98565057D02*
X106863220Y-98660295D01*
X106863220Y-98660295D02*
X106839410Y-98850771D01*
X106839410Y-98850771D02*
X106869172Y-99088866D01*
X106869172Y-99088866D02*
X106940601Y-99279342D01*
X106940601Y-99279342D02*
X107000124Y-99374580D01*
X107000124Y-99374580D02*
X107053696Y-99422200D01*
X107053696Y-99422200D02*
X107154886Y-99469819D01*
X107154886Y-99469819D02*
X107250124Y-99469819D01*
X107250124Y-99469819D02*
X107339410Y-99422200D01*
X107339410Y-99422200D02*
X107381077Y-99374580D01*
X107381077Y-99374580D02*
X107416791Y-99279342D01*
X107416791Y-99279342D02*
X107440601Y-99088866D01*
X107440601Y-99088866D02*
X107410839Y-98850771D01*
X107410839Y-98850771D02*
X107339410Y-98660295D01*
X107339410Y-98660295D02*
X107279886Y-98565057D01*
X107279886Y-98565057D02*
X107226315Y-98517438D01*
X107226315Y-98517438D02*
X107125124Y-98469819D01*
D11*
X143145489Y-91650114D02*
X142288346Y-91650114D01*
X143466917Y-97650114D02*
X142716917Y-91650114D01*
X142538346Y-97650114D02*
X142038346Y-93650114D01*
X141788346Y-91650114D02*
X141895489Y-91935828D01*
X141895489Y-91935828D02*
X141859775Y-92221542D01*
X141859775Y-92221542D02*
X141752632Y-91935828D01*
X141752632Y-91935828D02*
X141788346Y-91650114D01*
X141788346Y-91650114D02*
X141859775Y-92221542D01*
X141324060Y-93650114D02*
X141824060Y-97650114D01*
X141395489Y-94221542D02*
X141288346Y-93935828D01*
X141288346Y-93935828D02*
X141109774Y-93650114D01*
X141109774Y-93650114D02*
X140895489Y-93650114D01*
X140895489Y-93650114D02*
X140788346Y-93935828D01*
X140788346Y-93935828D02*
X140788346Y-94507257D01*
X140788346Y-94507257D02*
X141181203Y-97650114D01*
X140109774Y-93650114D02*
X140252631Y-97650114D01*
X139395488Y-93650114D02*
X140252631Y-97650114D01*
X140252631Y-97650114D02*
X140574060Y-99078685D01*
X140574060Y-99078685D02*
X140681203Y-99364400D01*
X140681203Y-99364400D02*
X140859774Y-99650114D01*
X139324060Y-97650114D02*
X138574060Y-91650114D01*
X138574060Y-91650114D02*
X138466917Y-97650114D01*
X138466917Y-97650114D02*
X137716917Y-91650114D01*
X136609774Y-93650114D02*
X137109774Y-97650114D01*
X137252631Y-93650114D02*
X137645488Y-96792971D01*
X137645488Y-96792971D02*
X137645488Y-97364400D01*
X137645488Y-97364400D02*
X137538345Y-97650114D01*
X137538345Y-97650114D02*
X137324060Y-97650114D01*
X137324060Y-97650114D02*
X137145488Y-97364400D01*
X137145488Y-97364400D02*
X137038345Y-97078685D01*
X136395488Y-97650114D02*
X135895488Y-93650114D01*
X135966917Y-94221542D02*
X135859774Y-93935828D01*
X135859774Y-93935828D02*
X135681202Y-93650114D01*
X135681202Y-93650114D02*
X135466917Y-93650114D01*
X135466917Y-93650114D02*
X135359774Y-93935828D01*
X135359774Y-93935828D02*
X135359774Y-94507257D01*
X135359774Y-94507257D02*
X135752631Y-97650114D01*
X135359774Y-94507257D02*
X135216917Y-93935828D01*
X135216917Y-93935828D02*
X135038345Y-93650114D01*
X135038345Y-93650114D02*
X134824059Y-93650114D01*
X134824059Y-93650114D02*
X134716917Y-93935828D01*
X134716917Y-93935828D02*
X134716917Y-94507257D01*
X134716917Y-94507257D02*
X135109774Y-97650114D01*
X134395488Y-97650114D02*
X133645488Y-91650114D01*
X133931202Y-93935828D02*
X133752631Y-93650114D01*
X133752631Y-93650114D02*
X133466917Y-93650114D01*
X133466917Y-93650114D02*
X133359774Y-93935828D01*
X133359774Y-93935828D02*
X133324059Y-94221542D01*
X133324059Y-94221542D02*
X133324059Y-94792971D01*
X133324059Y-94792971D02*
X133538345Y-96507257D01*
X133538345Y-96507257D02*
X133681202Y-97078685D01*
X133681202Y-97078685D02*
X133788345Y-97364400D01*
X133788345Y-97364400D02*
X133966917Y-97650114D01*
X133966917Y-97650114D02*
X134252631Y-97650114D01*
X134252631Y-97650114D02*
X134359774Y-97364400D01*
X132431202Y-97364400D02*
X132609774Y-97650114D01*
X132609774Y-97650114D02*
X132895488Y-97650114D01*
X132895488Y-97650114D02*
X133002631Y-97364400D01*
X133002631Y-97364400D02*
X133002631Y-96792971D01*
X133002631Y-96792971D02*
X132716916Y-94507257D01*
X132716916Y-94507257D02*
X132574059Y-93935828D01*
X132574059Y-93935828D02*
X132395488Y-93650114D01*
X132395488Y-93650114D02*
X132109774Y-93650114D01*
X132109774Y-93650114D02*
X132002631Y-93935828D01*
X132002631Y-93935828D02*
X132002631Y-94507257D01*
X132002631Y-94507257D02*
X132074059Y-95078685D01*
X132074059Y-95078685D02*
X132859774Y-95650114D01*
X131752631Y-97650114D02*
X131252631Y-93650114D01*
X131395488Y-94792971D02*
X131252631Y-94221542D01*
X131252631Y-94221542D02*
X131145488Y-93935828D01*
X131145488Y-93935828D02*
X130966917Y-93650114D01*
X130966917Y-93650114D02*
X130824060Y-93650114D01*
X130824060Y-97650114D02*
X130074060Y-91650114D01*
X130431203Y-94507257D02*
X129574060Y-94507257D01*
X129966917Y-97650114D02*
X129216917Y-91650114D01*
X128609774Y-97650114D02*
X128216917Y-94507257D01*
X128216917Y-94507257D02*
X128216917Y-93935828D01*
X128216917Y-93935828D02*
X128324060Y-93650114D01*
X128324060Y-93650114D02*
X128609774Y-93650114D01*
X128609774Y-93650114D02*
X128788345Y-93935828D01*
X128574060Y-97364400D02*
X128752631Y-97650114D01*
X128752631Y-97650114D02*
X129109774Y-97650114D01*
X129109774Y-97650114D02*
X129216917Y-97364400D01*
X129216917Y-97364400D02*
X129216917Y-96792971D01*
X129216917Y-96792971D02*
X129145488Y-96221542D01*
X129145488Y-96221542D02*
X129002631Y-95650114D01*
X129002631Y-95650114D02*
X128824060Y-95364400D01*
X128824060Y-95364400D02*
X128466917Y-95364400D01*
X128466917Y-95364400D02*
X128288345Y-95078685D01*
X127609774Y-93650114D02*
X127038345Y-93650114D01*
X127145488Y-91650114D02*
X127788345Y-96792971D01*
X127788345Y-96792971D02*
X127788345Y-97364400D01*
X127788345Y-97364400D02*
X127681202Y-97650114D01*
X127681202Y-97650114D02*
X127538345Y-97650114D01*
D10*
X134133333Y-76454819D02*
X134133333Y-77169104D01*
X134133333Y-77169104D02*
X134180952Y-77311961D01*
X134180952Y-77311961D02*
X134276190Y-77407200D01*
X134276190Y-77407200D02*
X134419047Y-77454819D01*
X134419047Y-77454819D02*
X134514285Y-77454819D01*
X133133333Y-77454819D02*
X133704761Y-77454819D01*
X133419047Y-77454819D02*
X133419047Y-76454819D01*
X133419047Y-76454819D02*
X133514285Y-76597676D01*
X133514285Y-76597676D02*
X133609523Y-76692914D01*
X133609523Y-76692914D02*
X133704761Y-76740533D01*
X122129580Y-89833333D02*
X122177200Y-89785714D01*
X122177200Y-89785714D02*
X122224819Y-89642857D01*
X122224819Y-89642857D02*
X122224819Y-89547619D01*
X122224819Y-89547619D02*
X122177200Y-89404762D01*
X122177200Y-89404762D02*
X122081961Y-89309524D01*
X122081961Y-89309524D02*
X121986723Y-89261905D01*
X121986723Y-89261905D02*
X121796247Y-89214286D01*
X121796247Y-89214286D02*
X121653390Y-89214286D01*
X121653390Y-89214286D02*
X121462914Y-89261905D01*
X121462914Y-89261905D02*
X121367676Y-89309524D01*
X121367676Y-89309524D02*
X121272438Y-89404762D01*
X121272438Y-89404762D02*
X121224819Y-89547619D01*
X121224819Y-89547619D02*
X121224819Y-89642857D01*
X121224819Y-89642857D02*
X121272438Y-89785714D01*
X121272438Y-89785714D02*
X121320057Y-89833333D01*
X121320057Y-90214286D02*
X121272438Y-90261905D01*
X121272438Y-90261905D02*
X121224819Y-90357143D01*
X121224819Y-90357143D02*
X121224819Y-90595238D01*
X121224819Y-90595238D02*
X121272438Y-90690476D01*
X121272438Y-90690476D02*
X121320057Y-90738095D01*
X121320057Y-90738095D02*
X121415295Y-90785714D01*
X121415295Y-90785714D02*
X121510533Y-90785714D01*
X121510533Y-90785714D02*
X121653390Y-90738095D01*
X121653390Y-90738095D02*
X122224819Y-90166667D01*
X122224819Y-90166667D02*
X122224819Y-90785714D01*
X163516666Y-88154819D02*
X163849999Y-87678628D01*
X164088094Y-88154819D02*
X164088094Y-87154819D01*
X164088094Y-87154819D02*
X163707142Y-87154819D01*
X163707142Y-87154819D02*
X163611904Y-87202438D01*
X163611904Y-87202438D02*
X163564285Y-87250057D01*
X163564285Y-87250057D02*
X163516666Y-87345295D01*
X163516666Y-87345295D02*
X163516666Y-87488152D01*
X163516666Y-87488152D02*
X163564285Y-87583390D01*
X163564285Y-87583390D02*
X163611904Y-87631009D01*
X163611904Y-87631009D02*
X163707142Y-87678628D01*
X163707142Y-87678628D02*
X164088094Y-87678628D01*
X163183332Y-87154819D02*
X162564285Y-87154819D01*
X162564285Y-87154819D02*
X162897618Y-87535771D01*
X162897618Y-87535771D02*
X162754761Y-87535771D01*
X162754761Y-87535771D02*
X162659523Y-87583390D01*
X162659523Y-87583390D02*
X162611904Y-87631009D01*
X162611904Y-87631009D02*
X162564285Y-87726247D01*
X162564285Y-87726247D02*
X162564285Y-87964342D01*
X162564285Y-87964342D02*
X162611904Y-88059580D01*
X162611904Y-88059580D02*
X162659523Y-88107200D01*
X162659523Y-88107200D02*
X162754761Y-88154819D01*
X162754761Y-88154819D02*
X163040475Y-88154819D01*
X163040475Y-88154819D02*
X163135713Y-88107200D01*
X163135713Y-88107200D02*
X163183332Y-88059580D01*
X106189580Y-81033333D02*
X106237200Y-80985714D01*
X106237200Y-80985714D02*
X106284819Y-80842857D01*
X106284819Y-80842857D02*
X106284819Y-80747619D01*
X106284819Y-80747619D02*
X106237200Y-80604762D01*
X106237200Y-80604762D02*
X106141961Y-80509524D01*
X106141961Y-80509524D02*
X106046723Y-80461905D01*
X106046723Y-80461905D02*
X105856247Y-80414286D01*
X105856247Y-80414286D02*
X105713390Y-80414286D01*
X105713390Y-80414286D02*
X105522914Y-80461905D01*
X105522914Y-80461905D02*
X105427676Y-80509524D01*
X105427676Y-80509524D02*
X105332438Y-80604762D01*
X105332438Y-80604762D02*
X105284819Y-80747619D01*
X105284819Y-80747619D02*
X105284819Y-80842857D01*
X105284819Y-80842857D02*
X105332438Y-80985714D01*
X105332438Y-80985714D02*
X105380057Y-81033333D01*
X105618152Y-81890476D02*
X106284819Y-81890476D01*
X105237200Y-81652381D02*
X105951485Y-81414286D01*
X105951485Y-81414286D02*
X105951485Y-82033333D01*
X163441666Y-84754819D02*
X163774999Y-84278628D01*
X164013094Y-84754819D02*
X164013094Y-83754819D01*
X164013094Y-83754819D02*
X163632142Y-83754819D01*
X163632142Y-83754819D02*
X163536904Y-83802438D01*
X163536904Y-83802438D02*
X163489285Y-83850057D01*
X163489285Y-83850057D02*
X163441666Y-83945295D01*
X163441666Y-83945295D02*
X163441666Y-84088152D01*
X163441666Y-84088152D02*
X163489285Y-84183390D01*
X163489285Y-84183390D02*
X163536904Y-84231009D01*
X163536904Y-84231009D02*
X163632142Y-84278628D01*
X163632142Y-84278628D02*
X164013094Y-84278628D01*
X162584523Y-84088152D02*
X162584523Y-84754819D01*
X162822618Y-83707200D02*
X163060713Y-84421485D01*
X163060713Y-84421485D02*
X162441666Y-84421485D01*
X163491666Y-86454819D02*
X163824999Y-85978628D01*
X164063094Y-86454819D02*
X164063094Y-85454819D01*
X164063094Y-85454819D02*
X163682142Y-85454819D01*
X163682142Y-85454819D02*
X163586904Y-85502438D01*
X163586904Y-85502438D02*
X163539285Y-85550057D01*
X163539285Y-85550057D02*
X163491666Y-85645295D01*
X163491666Y-85645295D02*
X163491666Y-85788152D01*
X163491666Y-85788152D02*
X163539285Y-85883390D01*
X163539285Y-85883390D02*
X163586904Y-85931009D01*
X163586904Y-85931009D02*
X163682142Y-85978628D01*
X163682142Y-85978628D02*
X164063094Y-85978628D01*
X162586904Y-85454819D02*
X163063094Y-85454819D01*
X163063094Y-85454819D02*
X163110713Y-85931009D01*
X163110713Y-85931009D02*
X163063094Y-85883390D01*
X163063094Y-85883390D02*
X162967856Y-85835771D01*
X162967856Y-85835771D02*
X162729761Y-85835771D01*
X162729761Y-85835771D02*
X162634523Y-85883390D01*
X162634523Y-85883390D02*
X162586904Y-85931009D01*
X162586904Y-85931009D02*
X162539285Y-86026247D01*
X162539285Y-86026247D02*
X162539285Y-86264342D01*
X162539285Y-86264342D02*
X162586904Y-86359580D01*
X162586904Y-86359580D02*
X162634523Y-86407200D01*
X162634523Y-86407200D02*
X162729761Y-86454819D01*
X162729761Y-86454819D02*
X162967856Y-86454819D01*
X162967856Y-86454819D02*
X163063094Y-86407200D01*
X163063094Y-86407200D02*
X163110713Y-86359580D01*
X164238094Y-90754819D02*
X164238094Y-89754819D01*
X164238094Y-89754819D02*
X163999999Y-89754819D01*
X163999999Y-89754819D02*
X163857142Y-89802438D01*
X163857142Y-89802438D02*
X163761904Y-89897676D01*
X163761904Y-89897676D02*
X163714285Y-89992914D01*
X163714285Y-89992914D02*
X163666666Y-90183390D01*
X163666666Y-90183390D02*
X163666666Y-90326247D01*
X163666666Y-90326247D02*
X163714285Y-90516723D01*
X163714285Y-90516723D02*
X163761904Y-90611961D01*
X163761904Y-90611961D02*
X163857142Y-90707200D01*
X163857142Y-90707200D02*
X163999999Y-90754819D01*
X163999999Y-90754819D02*
X164238094Y-90754819D01*
X162714285Y-90754819D02*
X163285713Y-90754819D01*
X162999999Y-90754819D02*
X162999999Y-89754819D01*
X162999999Y-89754819D02*
X163095237Y-89897676D01*
X163095237Y-89897676D02*
X163190475Y-89992914D01*
X163190475Y-89992914D02*
X163285713Y-90040533D01*
X106529580Y-91833333D02*
X106577200Y-91785714D01*
X106577200Y-91785714D02*
X106624819Y-91642857D01*
X106624819Y-91642857D02*
X106624819Y-91547619D01*
X106624819Y-91547619D02*
X106577200Y-91404762D01*
X106577200Y-91404762D02*
X106481961Y-91309524D01*
X106481961Y-91309524D02*
X106386723Y-91261905D01*
X106386723Y-91261905D02*
X106196247Y-91214286D01*
X106196247Y-91214286D02*
X106053390Y-91214286D01*
X106053390Y-91214286D02*
X105862914Y-91261905D01*
X105862914Y-91261905D02*
X105767676Y-91309524D01*
X105767676Y-91309524D02*
X105672438Y-91404762D01*
X105672438Y-91404762D02*
X105624819Y-91547619D01*
X105624819Y-91547619D02*
X105624819Y-91642857D01*
X105624819Y-91642857D02*
X105672438Y-91785714D01*
X105672438Y-91785714D02*
X105720057Y-91833333D01*
X105624819Y-92166667D02*
X105624819Y-92785714D01*
X105624819Y-92785714D02*
X106005771Y-92452381D01*
X106005771Y-92452381D02*
X106005771Y-92595238D01*
X106005771Y-92595238D02*
X106053390Y-92690476D01*
X106053390Y-92690476D02*
X106101009Y-92738095D01*
X106101009Y-92738095D02*
X106196247Y-92785714D01*
X106196247Y-92785714D02*
X106434342Y-92785714D01*
X106434342Y-92785714D02*
X106529580Y-92738095D01*
X106529580Y-92738095D02*
X106577200Y-92690476D01*
X106577200Y-92690476D02*
X106624819Y-92595238D01*
X106624819Y-92595238D02*
X106624819Y-92309524D01*
X106624819Y-92309524D02*
X106577200Y-92214286D01*
X106577200Y-92214286D02*
X106529580Y-92166667D01*
X110854819Y-88833333D02*
X110378628Y-88500000D01*
X110854819Y-88261905D02*
X109854819Y-88261905D01*
X109854819Y-88261905D02*
X109854819Y-88642857D01*
X109854819Y-88642857D02*
X109902438Y-88738095D01*
X109902438Y-88738095D02*
X109950057Y-88785714D01*
X109950057Y-88785714D02*
X110045295Y-88833333D01*
X110045295Y-88833333D02*
X110188152Y-88833333D01*
X110188152Y-88833333D02*
X110283390Y-88785714D01*
X110283390Y-88785714D02*
X110331009Y-88738095D01*
X110331009Y-88738095D02*
X110378628Y-88642857D01*
X110378628Y-88642857D02*
X110378628Y-88261905D01*
X109854819Y-89690476D02*
X109854819Y-89500000D01*
X109854819Y-89500000D02*
X109902438Y-89404762D01*
X109902438Y-89404762D02*
X109950057Y-89357143D01*
X109950057Y-89357143D02*
X110092914Y-89261905D01*
X110092914Y-89261905D02*
X110283390Y-89214286D01*
X110283390Y-89214286D02*
X110664342Y-89214286D01*
X110664342Y-89214286D02*
X110759580Y-89261905D01*
X110759580Y-89261905D02*
X110807200Y-89309524D01*
X110807200Y-89309524D02*
X110854819Y-89404762D01*
X110854819Y-89404762D02*
X110854819Y-89595238D01*
X110854819Y-89595238D02*
X110807200Y-89690476D01*
X110807200Y-89690476D02*
X110759580Y-89738095D01*
X110759580Y-89738095D02*
X110664342Y-89785714D01*
X110664342Y-89785714D02*
X110426247Y-89785714D01*
X110426247Y-89785714D02*
X110331009Y-89738095D01*
X110331009Y-89738095D02*
X110283390Y-89690476D01*
X110283390Y-89690476D02*
X110235771Y-89595238D01*
X110235771Y-89595238D02*
X110235771Y-89404762D01*
X110235771Y-89404762D02*
X110283390Y-89309524D01*
X110283390Y-89309524D02*
X110331009Y-89261905D01*
X110331009Y-89261905D02*
X110426247Y-89214286D01*
X105424819Y-88833333D02*
X104948628Y-88500000D01*
X105424819Y-88261905D02*
X104424819Y-88261905D01*
X104424819Y-88261905D02*
X104424819Y-88642857D01*
X104424819Y-88642857D02*
X104472438Y-88738095D01*
X104472438Y-88738095D02*
X104520057Y-88785714D01*
X104520057Y-88785714D02*
X104615295Y-88833333D01*
X104615295Y-88833333D02*
X104758152Y-88833333D01*
X104758152Y-88833333D02*
X104853390Y-88785714D01*
X104853390Y-88785714D02*
X104901009Y-88738095D01*
X104901009Y-88738095D02*
X104948628Y-88642857D01*
X104948628Y-88642857D02*
X104948628Y-88261905D01*
X104424819Y-89166667D02*
X104424819Y-89833333D01*
X104424819Y-89833333D02*
X105424819Y-89404762D01*
D12*
X157960000Y-70900000D02*
X157960000Y-76100000D01*
X107040000Y-70900000D02*
X157960000Y-70900000D01*
X107040000Y-70900000D02*
X107040000Y-73500000D01*
X109640000Y-73500000D02*
X109640000Y-76100000D01*
X107040000Y-73500000D02*
X109640000Y-73500000D01*
X107040000Y-74770000D02*
X107040000Y-76100000D01*
X109640000Y-76100000D02*
X157960000Y-76100000D01*
X107040000Y-76100000D02*
X108370000Y-76100000D01*
X123710000Y-89859420D02*
X123710000Y-90140580D01*
X122690000Y-89859420D02*
X122690000Y-90140580D01*
X161012258Y-88222500D02*
X160537742Y-88222500D01*
X161012258Y-87177500D02*
X160537742Y-87177500D01*
X103890000Y-81340580D02*
X103890000Y-81059420D01*
X104910000Y-81340580D02*
X104910000Y-81059420D01*
G36*
X116288602Y-87200667D02*
G01*
X116329907Y-87210841D01*
X116405381Y-87239910D01*
X116473954Y-87288358D01*
X116530165Y-87354669D01*
X116570505Y-87415401D01*
X116573797Y-87763135D01*
X116574186Y-87809853D01*
X116574607Y-87891898D01*
X116574651Y-87965806D01*
X116574337Y-88028856D01*
X116573681Y-88078326D01*
X116572703Y-88111494D01*
X116571419Y-88125640D01*
X116561901Y-88136814D01*
X116541385Y-88138808D01*
X116507953Y-88129416D01*
X116459054Y-88108244D01*
X116391096Y-88076095D01*
X116390623Y-87811956D01*
X116390473Y-87762650D01*
X116389677Y-87674439D01*
X116387962Y-87604330D01*
X116385009Y-87549859D01*
X116380498Y-87508563D01*
X116374109Y-87477980D01*
X116365521Y-87455646D01*
X116354416Y-87439098D01*
X116340473Y-87425874D01*
X116326583Y-87415838D01*
X116278792Y-87395636D01*
X116231323Y-87394556D01*
X116187480Y-87410860D01*
X116150568Y-87442810D01*
X116123889Y-87488669D01*
X116110750Y-87546698D01*
X116108862Y-87564673D01*
X116101041Y-87598261D01*
X116088661Y-87612864D01*
X116087725Y-87613146D01*
X116068650Y-87610867D01*
X116037400Y-87600337D01*
X116000247Y-87583631D01*
X115928981Y-87547817D01*
X115930298Y-87493137D01*
X115930533Y-87486910D01*
X115944407Y-87417609D01*
X115976900Y-87352472D01*
X116025141Y-87294989D01*
X116086260Y-87248652D01*
X116157388Y-87216952D01*
X116197476Y-87204956D01*
X116230518Y-87197437D01*
X116258183Y-87196103D01*
X116288602Y-87200667D01*
G37*
G36*
X113187062Y-87211340D02*
G01*
X113253862Y-87232825D01*
X113317205Y-87273333D01*
X113373526Y-87331017D01*
X113415759Y-87399697D01*
X113421805Y-87413650D01*
X113427206Y-87429699D01*
X113431429Y-87448948D01*
X113434660Y-87474047D01*
X113437085Y-87507645D01*
X113438889Y-87552392D01*
X113440260Y-87610936D01*
X113441382Y-87685928D01*
X113442442Y-87780016D01*
X113442742Y-87811286D01*
X113443261Y-87892251D01*
X113443368Y-87965502D01*
X113443083Y-88028232D01*
X113442424Y-88077637D01*
X113441412Y-88110909D01*
X113440065Y-88125243D01*
X113429484Y-88135133D01*
X113406358Y-88140411D01*
X113402821Y-88140222D01*
X113375827Y-88133599D01*
X113340477Y-88119988D01*
X113304046Y-88102769D01*
X113273808Y-88085322D01*
X113257037Y-88071027D01*
X113255093Y-88059606D01*
X113253113Y-88028910D01*
X113251414Y-87982196D01*
X113250079Y-87922485D01*
X113249194Y-87852798D01*
X113248842Y-87776156D01*
X113248836Y-87768325D01*
X113248647Y-87683483D01*
X113248123Y-87617380D01*
X113247075Y-87567238D01*
X113245315Y-87530276D01*
X113242657Y-87503715D01*
X113238911Y-87484775D01*
X113233891Y-87470676D01*
X113227410Y-87458640D01*
X113195376Y-87421640D01*
X113151653Y-87397625D01*
X113103271Y-87391688D01*
X113055149Y-87405351D01*
X113038012Y-87415188D01*
X113007557Y-87442268D01*
X112988321Y-87479349D01*
X112976800Y-87532098D01*
X112970823Y-87564681D01*
X112962391Y-87593912D01*
X112954157Y-87608226D01*
X112943705Y-87611278D01*
X112921022Y-87607982D01*
X112885986Y-87595119D01*
X112835531Y-87571745D01*
X112786601Y-87547817D01*
X112788943Y-87491037D01*
X112793894Y-87452781D01*
X112817535Y-87385850D01*
X112857292Y-87323302D01*
X112909738Y-87270021D01*
X112971447Y-87230892D01*
X112971661Y-87230792D01*
X113037812Y-87210268D01*
X113112329Y-87203802D01*
X113187062Y-87211340D01*
G37*
G36*
X119187283Y-87156443D02*
G01*
X119236052Y-87157721D01*
X119271019Y-87161650D01*
X119298716Y-87169331D01*
X119325674Y-87181864D01*
X119361354Y-87203938D01*
X119419282Y-87253378D01*
X119467158Y-87311534D01*
X119499299Y-87372177D01*
X119501053Y-87376914D01*
X119507157Y-87394943D01*
X119511988Y-87413681D01*
X119515693Y-87435760D01*
X119518422Y-87463809D01*
X119520322Y-87500456D01*
X119521542Y-87548332D01*
X119522230Y-87610066D01*
X119522534Y-87688287D01*
X119522603Y-87785625D01*
X119522527Y-87836478D01*
X119522070Y-87917972D01*
X119521247Y-87990882D01*
X119520110Y-88052577D01*
X119518714Y-88100422D01*
X119517111Y-88131785D01*
X119515354Y-88144035D01*
X119510074Y-88147339D01*
X119490233Y-88151284D01*
X119479813Y-88149738D01*
X119450418Y-88141172D01*
X119411977Y-88127371D01*
X119371143Y-88110929D01*
X119334564Y-88094442D01*
X119308893Y-88080507D01*
X119283391Y-88063797D01*
X119283391Y-87765866D01*
X119283391Y-87467936D01*
X119255552Y-87434851D01*
X119250533Y-87429217D01*
X119211461Y-87401602D01*
X119167075Y-87393402D01*
X119121935Y-87405614D01*
X119120385Y-87406430D01*
X119094659Y-87424000D01*
X119078519Y-87441915D01*
X119077506Y-87445503D01*
X119074826Y-87468584D01*
X119072088Y-87509462D01*
X119069417Y-87565309D01*
X119066937Y-87633292D01*
X119064772Y-87710582D01*
X119063046Y-87794347D01*
X119062416Y-87829171D01*
X119060644Y-87910035D01*
X119058625Y-87982917D01*
X119056461Y-88045065D01*
X119054256Y-88093725D01*
X119052112Y-88126145D01*
X119050133Y-88139573D01*
X119038338Y-88148420D01*
X119008048Y-88149128D01*
X118962574Y-88136264D01*
X118902826Y-88110012D01*
X118821276Y-88069735D01*
X118821276Y-87743536D01*
X118821276Y-87417337D01*
X118849635Y-87357534D01*
X118858298Y-87340677D01*
X118902796Y-87277074D01*
X118959592Y-87221463D01*
X119021995Y-87180709D01*
X119022224Y-87180596D01*
X119051197Y-87168404D01*
X119081804Y-87161018D01*
X119120730Y-87157374D01*
X119174658Y-87156409D01*
X119187283Y-87156443D01*
G37*
G36*
X120343536Y-87645253D02*
G01*
X120343536Y-87895762D01*
X120311590Y-87953429D01*
X120263805Y-88020998D01*
X120202192Y-88077248D01*
X120131675Y-88117596D01*
X120056259Y-88139128D01*
X120047636Y-88140301D01*
X119959339Y-88141711D01*
X119878597Y-88122732D01*
X119805473Y-88083386D01*
X119740028Y-88023695D01*
X119731630Y-88014088D01*
X119695296Y-87968826D01*
X119671178Y-87928487D01*
X119656867Y-87886442D01*
X119649951Y-87836063D01*
X119648018Y-87770719D01*
X119647988Y-87745036D01*
X119649403Y-87697921D01*
X119655312Y-87668641D01*
X119668700Y-87655590D01*
X119692548Y-87657163D01*
X119729842Y-87671752D01*
X119783562Y-87697754D01*
X119875985Y-87743536D01*
X119885321Y-87795212D01*
X119888852Y-87810661D01*
X119910036Y-87855675D01*
X119942147Y-87886088D01*
X119981324Y-87900234D01*
X120023706Y-87896444D01*
X120065433Y-87873049D01*
X120071993Y-87867257D01*
X120091173Y-87846303D01*
X120098887Y-87830886D01*
X120094561Y-87824936D01*
X120074066Y-87810836D01*
X120040560Y-87792662D01*
X119998309Y-87772874D01*
X119961685Y-87756833D01*
X119868390Y-87715747D01*
X119793537Y-87682383D01*
X119735940Y-87656199D01*
X119694413Y-87636649D01*
X119667769Y-87623190D01*
X119654824Y-87615277D01*
X119648384Y-87604933D01*
X119642527Y-87575007D01*
X119641279Y-87532949D01*
X119644238Y-87484204D01*
X119649105Y-87448220D01*
X119903168Y-87448220D01*
X119906849Y-87453988D01*
X119926368Y-87468637D01*
X119958906Y-87487587D01*
X120000172Y-87508183D01*
X120026888Y-87520484D01*
X120064480Y-87537362D01*
X120091528Y-87548949D01*
X120103469Y-87553254D01*
X120104858Y-87552182D01*
X120108358Y-87537116D01*
X120109760Y-87509932D01*
X120108406Y-87491714D01*
X120092845Y-87448832D01*
X120063512Y-87416712D01*
X120024970Y-87397983D01*
X119981780Y-87395277D01*
X119938506Y-87411221D01*
X119932635Y-87415101D01*
X119911651Y-87433260D01*
X119903168Y-87448220D01*
X119649105Y-87448220D01*
X119651000Y-87434213D01*
X119661161Y-87388421D01*
X119674319Y-87352270D01*
X119691444Y-87321253D01*
X119745144Y-87253671D01*
X119812195Y-87201889D01*
X119889945Y-87167663D01*
X119975741Y-87152748D01*
X120024336Y-87152963D01*
X120109299Y-87168590D01*
X120184982Y-87203765D01*
X120250627Y-87258076D01*
X120305480Y-87331116D01*
X120343536Y-87394745D01*
X120343536Y-87509932D01*
X120343536Y-87645253D01*
G37*
G36*
X122000188Y-87656463D02*
G01*
X122000765Y-87723102D01*
X122000195Y-87773871D01*
X121998199Y-87812893D01*
X121994498Y-87844287D01*
X121988815Y-87872176D01*
X121980870Y-87900679D01*
X121958433Y-87956401D01*
X121912643Y-88024773D01*
X121852747Y-88079815D01*
X121781787Y-88118913D01*
X121702806Y-88139455D01*
X121682162Y-88141586D01*
X121592273Y-88138818D01*
X121510041Y-88116365D01*
X121437273Y-88075184D01*
X121375775Y-88016233D01*
X121327355Y-87940468D01*
X121293722Y-87872150D01*
X121296827Y-87655094D01*
X121540013Y-87655094D01*
X121540428Y-87838485D01*
X121575523Y-87869842D01*
X121576459Y-87870671D01*
X121609645Y-87892704D01*
X121640347Y-87900763D01*
X121642036Y-87900722D01*
X121680901Y-87892268D01*
X121716851Y-87872802D01*
X121740480Y-87847343D01*
X121742835Y-87839172D01*
X121746380Y-87810115D01*
X121749161Y-87765176D01*
X121750977Y-87708047D01*
X121751627Y-87642421D01*
X121751592Y-87608307D01*
X121751151Y-87549077D01*
X121749902Y-87506392D01*
X121747476Y-87476701D01*
X121743499Y-87456453D01*
X121737601Y-87442097D01*
X121729409Y-87430081D01*
X121723661Y-87423467D01*
X121687710Y-87400119D01*
X121644573Y-87393736D01*
X121601044Y-87405614D01*
X121598950Y-87406705D01*
X121578391Y-87419112D01*
X121563200Y-87433809D01*
X121552584Y-87454038D01*
X121545750Y-87483039D01*
X121541906Y-87524055D01*
X121540258Y-87580326D01*
X121540013Y-87655094D01*
X121296827Y-87655094D01*
X121297053Y-87639307D01*
X121297751Y-87592716D01*
X121299032Y-87526081D01*
X121300689Y-87475868D01*
X121303075Y-87438683D01*
X121306545Y-87411134D01*
X121311453Y-87389830D01*
X121318153Y-87371376D01*
X121326999Y-87352381D01*
X121333805Y-87339434D01*
X121376840Y-87278294D01*
X121432202Y-87223084D01*
X121492351Y-87181593D01*
X121503045Y-87176122D01*
X121528395Y-87165988D01*
X121556944Y-87159984D01*
X121594865Y-87157114D01*
X121648331Y-87156379D01*
X121663641Y-87156421D01*
X121713321Y-87157691D01*
X121748779Y-87161412D01*
X121776005Y-87168507D01*
X121800991Y-87179899D01*
X121811249Y-87185671D01*
X121872971Y-87231835D01*
X121927391Y-87291048D01*
X121967447Y-87355845D01*
X121968718Y-87358565D01*
X121978537Y-87380822D01*
X121985785Y-87401845D01*
X121990925Y-87425462D01*
X121994420Y-87455505D01*
X121996734Y-87495804D01*
X121998328Y-87550187D01*
X121999666Y-87622486D01*
X121999972Y-87642421D01*
X122000188Y-87656463D01*
G37*
G36*
X115795727Y-87683261D02*
G01*
X115796146Y-87754445D01*
X115795845Y-87808097D01*
X115794523Y-87847812D01*
X115791880Y-87877189D01*
X115787615Y-87899823D01*
X115781428Y-87919313D01*
X115773017Y-87939255D01*
X115766169Y-87953526D01*
X115721283Y-88020847D01*
X115662805Y-88076660D01*
X115594991Y-88117556D01*
X115522098Y-88140130D01*
X115500912Y-88142904D01*
X115420580Y-88140366D01*
X115343851Y-88118303D01*
X115274033Y-88078472D01*
X115214437Y-88022628D01*
X115168374Y-87952527D01*
X115140668Y-87896929D01*
X115140668Y-87601127D01*
X115332974Y-87601127D01*
X115333458Y-87676375D01*
X115334709Y-87746721D01*
X115337111Y-87803706D01*
X115341406Y-87845466D01*
X115348399Y-87875363D01*
X115358896Y-87896758D01*
X115373702Y-87913015D01*
X115393623Y-87927494D01*
X115429358Y-87944775D01*
X115477532Y-87950909D01*
X115522085Y-87938399D01*
X115559968Y-87909001D01*
X115588132Y-87864472D01*
X115603529Y-87806567D01*
X115605391Y-87788258D01*
X115607772Y-87738270D01*
X115607774Y-87680948D01*
X115605689Y-87621136D01*
X115601808Y-87563681D01*
X115596422Y-87513428D01*
X115589824Y-87475221D01*
X115582306Y-87453907D01*
X115547110Y-87417458D01*
X115501903Y-87395805D01*
X115453159Y-87393470D01*
X115404936Y-87411422D01*
X115399827Y-87414569D01*
X115375770Y-87431211D01*
X115358109Y-87449076D01*
X115345920Y-87471583D01*
X115338283Y-87502148D01*
X115334275Y-87544191D01*
X115332974Y-87601127D01*
X115140668Y-87601127D01*
X115140668Y-87405661D01*
X115140732Y-87297064D01*
X115140987Y-87197384D01*
X115141491Y-87115920D01*
X115142307Y-87050827D01*
X115143492Y-87000261D01*
X115145108Y-86962377D01*
X115147214Y-86935332D01*
X115149870Y-86917280D01*
X115153136Y-86906377D01*
X115157072Y-86900778D01*
X115165306Y-86896065D01*
X115181365Y-86895509D01*
X115206903Y-86903109D01*
X115246776Y-86919899D01*
X115320077Y-86952634D01*
X115328712Y-87021886D01*
X115331470Y-87051879D01*
X115333387Y-87108529D01*
X115331742Y-87160141D01*
X115330957Y-87170363D01*
X115329681Y-87204712D01*
X115332461Y-87221506D01*
X115339696Y-87223939D01*
X115350251Y-87220790D01*
X115378095Y-87213980D01*
X115413819Y-87206163D01*
X115451356Y-87200881D01*
X115528346Y-87205211D01*
X115601662Y-87228726D01*
X115668134Y-87269715D01*
X115724592Y-87326467D01*
X115767865Y-87397270D01*
X115769259Y-87400311D01*
X115777829Y-87420606D01*
X115784181Y-87440893D01*
X115788683Y-87464797D01*
X115791707Y-87495944D01*
X115793622Y-87537960D01*
X115794798Y-87594471D01*
X115795605Y-87669102D01*
X115795707Y-87680948D01*
X115795727Y-87683261D01*
G37*
G36*
X112645248Y-87667423D02*
G01*
X112645241Y-87687973D01*
X112644986Y-87765198D01*
X112644207Y-87824443D01*
X112642693Y-87868773D01*
X112640230Y-87901252D01*
X112636604Y-87924943D01*
X112631603Y-87942909D01*
X112625013Y-87958216D01*
X112615426Y-87975536D01*
X112573850Y-88029733D01*
X112520384Y-88078431D01*
X112462261Y-88114678D01*
X112456800Y-88117256D01*
X112426266Y-88129785D01*
X112397241Y-88136577D01*
X112362009Y-88138822D01*
X112312854Y-88137707D01*
X112269614Y-88135165D01*
X112230804Y-88129755D01*
X112200038Y-88120172D01*
X112169811Y-88104680D01*
X112136161Y-88081495D01*
X112080670Y-88025493D01*
X112037126Y-87957382D01*
X112008657Y-87882603D01*
X111998394Y-87806598D01*
X111998978Y-87783565D01*
X112005118Y-87747293D01*
X112019724Y-87727382D01*
X112044985Y-87723060D01*
X112083090Y-87733557D01*
X112136227Y-87758104D01*
X112138156Y-87759093D01*
X112166401Y-87776530D01*
X112181089Y-87796313D01*
X112188936Y-87827252D01*
X112193409Y-87846545D01*
X112217246Y-87893722D01*
X112254163Y-87927093D01*
X112300058Y-87944773D01*
X112350834Y-87944873D01*
X112402391Y-87925507D01*
X112423344Y-87908652D01*
X112446025Y-87876370D01*
X112454966Y-87842985D01*
X112454949Y-87842474D01*
X112452427Y-87836768D01*
X112444206Y-87829459D01*
X112428261Y-87819520D01*
X112402562Y-87805923D01*
X112365083Y-87787643D01*
X112313796Y-87763651D01*
X112246674Y-87732921D01*
X112161690Y-87694426D01*
X112138716Y-87683937D01*
X112088988Y-87660397D01*
X112047947Y-87639821D01*
X112019340Y-87624125D01*
X112006912Y-87615227D01*
X112006660Y-87614819D01*
X111999970Y-87589936D01*
X111998394Y-87550849D01*
X112001500Y-87504199D01*
X112004756Y-87483129D01*
X112198448Y-87483129D01*
X112200546Y-87498503D01*
X112211678Y-87505248D01*
X112239150Y-87519110D01*
X112278223Y-87537580D01*
X112324486Y-87558521D01*
X112365963Y-87576900D01*
X112407387Y-87595211D01*
X112438244Y-87608802D01*
X112453880Y-87615619D01*
X112457616Y-87615618D01*
X112463465Y-87603045D01*
X112465216Y-87577247D01*
X112463337Y-87543877D01*
X112458294Y-87508587D01*
X112450556Y-87477029D01*
X112440589Y-87454854D01*
X112404738Y-87417601D01*
X112359497Y-87395779D01*
X112310821Y-87393407D01*
X112262556Y-87411422D01*
X112260641Y-87412610D01*
X112232211Y-87434964D01*
X112210242Y-87460209D01*
X112198448Y-87483129D01*
X112004756Y-87483129D01*
X112008851Y-87456628D01*
X112020015Y-87414778D01*
X112049568Y-87354129D01*
X112097890Y-87295404D01*
X112158279Y-87249365D01*
X112227076Y-87217642D01*
X112300617Y-87201863D01*
X112375242Y-87203658D01*
X112447289Y-87224657D01*
X112479426Y-87239976D01*
X112529668Y-87270699D01*
X112569312Y-87307485D01*
X112605592Y-87356352D01*
X112645248Y-87417337D01*
X112645248Y-87577247D01*
X112645248Y-87667423D01*
G37*
G36*
X121175113Y-87716133D02*
G01*
X121175324Y-87820795D01*
X121175343Y-87945153D01*
X121175256Y-88051554D01*
X121174909Y-88158246D01*
X121174259Y-88245992D01*
X121173266Y-88316305D01*
X121171890Y-88370701D01*
X121170090Y-88410695D01*
X121167827Y-88437801D01*
X121165061Y-88453534D01*
X121161751Y-88459409D01*
X121155982Y-88461672D01*
X121146072Y-88464022D01*
X121133819Y-88462783D01*
X121114804Y-88456728D01*
X121084609Y-88444630D01*
X121038815Y-88425261D01*
X120941567Y-88383912D01*
X120938498Y-88256104D01*
X120937688Y-88224589D01*
X120936016Y-88180499D01*
X120933582Y-88152897D01*
X120929724Y-88138355D01*
X120923783Y-88133447D01*
X120915097Y-88134748D01*
X120886134Y-88139681D01*
X120842296Y-88141584D01*
X120792947Y-88140296D01*
X120746281Y-88136046D01*
X120710488Y-88129061D01*
X120657951Y-88105704D01*
X120599899Y-88064060D01*
X120547428Y-88011083D01*
X120505682Y-87952054D01*
X120479806Y-87892253D01*
X120477381Y-87880980D01*
X120472973Y-87842372D01*
X120472058Y-87826067D01*
X120706598Y-87826067D01*
X120744164Y-87863633D01*
X120756276Y-87874567D01*
X120798519Y-87897258D01*
X120841331Y-87899539D01*
X120881114Y-87881815D01*
X120914274Y-87844490D01*
X120920742Y-87832775D01*
X120927454Y-87814894D01*
X120931894Y-87791525D01*
X120934513Y-87758605D01*
X120935761Y-87712069D01*
X120936090Y-87647855D01*
X120936077Y-87635298D01*
X120935033Y-87564782D01*
X120931729Y-87511934D01*
X120925340Y-87473248D01*
X120915040Y-87445221D01*
X120900004Y-87424348D01*
X120879407Y-87407124D01*
X120861742Y-87397338D01*
X120819772Y-87391458D01*
X120772675Y-87406648D01*
X120758970Y-87414521D01*
X120741017Y-87429711D01*
X120728004Y-87450513D01*
X120719099Y-87480150D01*
X120713469Y-87521849D01*
X120710281Y-87578831D01*
X120708702Y-87654322D01*
X120706598Y-87826067D01*
X120472058Y-87826067D01*
X120469988Y-87789168D01*
X120468379Y-87725907D01*
X120468100Y-87657129D01*
X120469103Y-87587373D01*
X120471342Y-87521180D01*
X120474770Y-87463089D01*
X120479339Y-87417640D01*
X120485003Y-87389373D01*
X120494501Y-87365590D01*
X120532668Y-87301905D01*
X120585233Y-87243278D01*
X120647038Y-87195869D01*
X120658471Y-87188883D01*
X120685847Y-87173329D01*
X120709452Y-87163746D01*
X120735665Y-87158690D01*
X120770866Y-87156716D01*
X120821434Y-87156379D01*
X120837218Y-87156393D01*
X120883158Y-87157080D01*
X120915507Y-87159825D01*
X120940669Y-87166029D01*
X120965046Y-87177098D01*
X120995040Y-87194435D01*
X121015908Y-87208180D01*
X121062570Y-87246558D01*
X121100391Y-87287527D01*
X121110953Y-87301427D01*
X121125953Y-87321967D01*
X121138422Y-87341687D01*
X121148593Y-87362640D01*
X121156701Y-87386877D01*
X121162980Y-87416448D01*
X121167662Y-87453406D01*
X121170983Y-87499802D01*
X121173176Y-87557688D01*
X121174475Y-87629114D01*
X121174612Y-87647855D01*
X121175113Y-87716133D01*
G37*
G36*
X118020450Y-86901915D02*
G01*
X118054874Y-86914612D01*
X118090607Y-86930997D01*
X118120893Y-86948138D01*
X118138977Y-86963105D01*
X118139276Y-86963613D01*
X118142092Y-86980079D01*
X118144608Y-87015519D01*
X118146817Y-87067417D01*
X118148715Y-87133256D01*
X118150293Y-87210518D01*
X118151546Y-87296687D01*
X118152467Y-87389246D01*
X118153048Y-87485677D01*
X118153285Y-87583464D01*
X118153170Y-87680090D01*
X118152696Y-87773037D01*
X118151858Y-87859789D01*
X118150648Y-87937828D01*
X118149061Y-88004638D01*
X118147088Y-88057701D01*
X118144725Y-88094501D01*
X118141964Y-88112520D01*
X118131932Y-88131404D01*
X118120626Y-88140411D01*
X118117415Y-88140198D01*
X118093068Y-88134030D01*
X118059428Y-88121697D01*
X118023999Y-88106392D01*
X117994284Y-88091306D01*
X117977786Y-88079632D01*
X117973383Y-88068177D01*
X117969505Y-88042839D01*
X117966298Y-88002268D01*
X117963667Y-87944834D01*
X117961516Y-87868912D01*
X117959750Y-87772872D01*
X117959287Y-87742437D01*
X117957782Y-87656662D01*
X117955886Y-87589223D01*
X117953080Y-87537510D01*
X117948851Y-87498915D01*
X117942683Y-87470830D01*
X117934059Y-87450647D01*
X117922464Y-87435757D01*
X117907383Y-87423551D01*
X117888301Y-87411422D01*
X117849638Y-87394645D01*
X117801978Y-87393338D01*
X117753011Y-87413559D01*
X117748811Y-87416186D01*
X117730774Y-87428948D01*
X117716490Y-87443448D01*
X117705525Y-87462188D01*
X117697443Y-87487669D01*
X117691808Y-87522391D01*
X117688183Y-87568854D01*
X117686134Y-87629561D01*
X117685224Y-87707011D01*
X117685017Y-87803705D01*
X117684994Y-87837169D01*
X117684553Y-87925940D01*
X117683369Y-87995843D01*
X117681194Y-88049046D01*
X117677785Y-88087717D01*
X117672895Y-88114021D01*
X117666279Y-88130127D01*
X117657692Y-88138201D01*
X117646888Y-88140411D01*
X117640186Y-88139555D01*
X117614721Y-88131705D01*
X117581558Y-88118256D01*
X117547747Y-88102420D01*
X117520340Y-88087408D01*
X117506385Y-88076429D01*
X117506197Y-88076027D01*
X117504300Y-88060484D01*
X117502647Y-88026381D01*
X117501300Y-87976630D01*
X117500321Y-87914143D01*
X117499772Y-87841832D01*
X117499715Y-87762608D01*
X117499773Y-87742569D01*
X117500383Y-87646440D01*
X117501813Y-87568838D01*
X117504499Y-87507047D01*
X117508878Y-87458354D01*
X117515385Y-87420042D01*
X117524457Y-87389398D01*
X117536530Y-87363705D01*
X117552041Y-87340249D01*
X117571425Y-87316314D01*
X117574972Y-87312306D01*
X117617595Y-87275373D01*
X117672578Y-87241267D01*
X117731558Y-87214531D01*
X117786172Y-87199704D01*
X117795474Y-87198662D01*
X117838691Y-87198899D01*
X117880736Y-87205131D01*
X117916579Y-87213857D01*
X117943101Y-87218451D01*
X117956203Y-87215701D01*
X117960058Y-87204456D01*
X117958840Y-87183562D01*
X117958121Y-87165296D01*
X117958393Y-87126640D01*
X117959930Y-87077410D01*
X117962583Y-87023951D01*
X117966716Y-86967052D01*
X117971580Y-86928196D01*
X117977612Y-86905581D01*
X117985304Y-86896436D01*
X117994087Y-86895835D01*
X118020450Y-86901915D01*
G37*
G36*
X114338411Y-87206546D02*
G01*
X114360822Y-87215976D01*
X114388361Y-87228575D01*
X114391429Y-87229959D01*
X114427641Y-87247592D01*
X114455374Y-87263335D01*
X114468842Y-87273926D01*
X114469376Y-87275433D01*
X114471439Y-87294196D01*
X114473296Y-87331158D01*
X114474876Y-87383475D01*
X114476107Y-87448304D01*
X114476916Y-87522802D01*
X114477231Y-87604125D01*
X114477390Y-87691406D01*
X114477877Y-87766383D01*
X114478813Y-87824187D01*
X114480318Y-87867185D01*
X114482516Y-87897745D01*
X114485528Y-87918235D01*
X114489477Y-87931024D01*
X114494484Y-87938479D01*
X114510997Y-87950380D01*
X114540323Y-87953500D01*
X114567982Y-87935850D01*
X114570688Y-87932333D01*
X114575166Y-87922557D01*
X114578755Y-87906953D01*
X114581581Y-87883246D01*
X114583770Y-87849163D01*
X114585450Y-87802429D01*
X114586746Y-87740771D01*
X114587786Y-87661915D01*
X114588695Y-87563586D01*
X114589358Y-87470384D01*
X114590086Y-87387456D01*
X114591441Y-87322677D01*
X114594062Y-87274170D01*
X114598589Y-87240060D01*
X114605663Y-87218470D01*
X114615925Y-87207524D01*
X114630014Y-87205346D01*
X114648571Y-87210059D01*
X114672236Y-87219789D01*
X114701650Y-87232658D01*
X114703393Y-87233398D01*
X114737821Y-87248114D01*
X114762841Y-87258953D01*
X114773144Y-87263617D01*
X114773439Y-87266090D01*
X114774303Y-87286101D01*
X114775430Y-87324004D01*
X114776757Y-87377170D01*
X114778219Y-87442967D01*
X114779755Y-87518765D01*
X114781299Y-87601934D01*
X114787286Y-87938756D01*
X114816858Y-87949144D01*
X114820718Y-87950442D01*
X114846227Y-87953093D01*
X114868507Y-87939553D01*
X114871641Y-87936577D01*
X114877099Y-87929669D01*
X114881395Y-87919715D01*
X114884667Y-87904379D01*
X114887054Y-87881323D01*
X114888695Y-87848209D01*
X114889729Y-87802699D01*
X114890296Y-87742456D01*
X114890534Y-87665142D01*
X114890582Y-87568419D01*
X114890515Y-87473455D01*
X114890659Y-87389435D01*
X114891617Y-87323608D01*
X114893992Y-87274125D01*
X114898388Y-87239136D01*
X114905408Y-87216792D01*
X114915654Y-87205245D01*
X114929732Y-87202644D01*
X114948242Y-87207141D01*
X114971790Y-87216885D01*
X115000979Y-87230029D01*
X115075428Y-87262913D01*
X115075368Y-87601084D01*
X115075020Y-87692718D01*
X115073957Y-87780388D01*
X115072247Y-87855206D01*
X115069956Y-87914951D01*
X115067152Y-87957399D01*
X115063901Y-87980327D01*
X115059631Y-87993133D01*
X115032723Y-88041105D01*
X114992776Y-88085425D01*
X114946032Y-88118763D01*
X114937192Y-88122983D01*
X114886961Y-88136662D01*
X114828649Y-88140475D01*
X114771413Y-88134432D01*
X114724413Y-88118541D01*
X114683608Y-88096671D01*
X114640739Y-88118541D01*
X114595722Y-88134287D01*
X114530950Y-88140411D01*
X114498269Y-88138721D01*
X114431025Y-88121686D01*
X114373769Y-88085669D01*
X114324996Y-88029864D01*
X114287115Y-87974372D01*
X114283982Y-87598153D01*
X114283660Y-87561110D01*
X114282780Y-87461062D01*
X114282455Y-87380375D01*
X114283193Y-87317250D01*
X114285503Y-87269888D01*
X114289892Y-87236489D01*
X114296870Y-87215255D01*
X114306943Y-87204386D01*
X114320621Y-87202083D01*
X114338411Y-87206546D01*
G37*
G36*
X117122622Y-87212355D02*
G01*
X117168536Y-87225811D01*
X117205105Y-87247595D01*
X117254050Y-87289735D01*
X117298550Y-87341442D01*
X117332482Y-87396348D01*
X117343940Y-87422717D01*
X117356758Y-87471007D01*
X117361889Y-87530016D01*
X117361813Y-87575886D01*
X117356263Y-87606442D01*
X117342505Y-87620260D01*
X117317928Y-87619810D01*
X117279921Y-87607562D01*
X117254000Y-87597190D01*
X117208497Y-87574462D01*
X117182343Y-87552745D01*
X117173973Y-87530907D01*
X117173910Y-87527651D01*
X117163547Y-87484214D01*
X117139290Y-87442471D01*
X117106669Y-87412180D01*
X117069307Y-87395626D01*
X117019697Y-87392687D01*
X116970627Y-87411461D01*
X116959936Y-87418961D01*
X116935897Y-87442690D01*
X116916995Y-87469785D01*
X116906923Y-87494292D01*
X116909370Y-87510258D01*
X116917422Y-87514962D01*
X116943042Y-87527325D01*
X116982563Y-87545283D01*
X117032495Y-87567259D01*
X117089349Y-87591675D01*
X117113518Y-87602050D01*
X117189883Y-87637130D01*
X117248618Y-87668969D01*
X117292324Y-87699625D01*
X117323606Y-87731156D01*
X117345066Y-87765619D01*
X117359307Y-87805072D01*
X117362836Y-87820824D01*
X117366946Y-87878236D01*
X117360329Y-87936606D01*
X117343875Y-87985543D01*
X117309506Y-88034376D01*
X117256715Y-88081477D01*
X117193797Y-88117989D01*
X117126742Y-88139658D01*
X117103508Y-88142932D01*
X117053044Y-88143835D01*
X117002696Y-88137999D01*
X116957847Y-88126595D01*
X116923880Y-88110792D01*
X116906179Y-88091758D01*
X116905565Y-88077812D01*
X116911647Y-88048570D01*
X116923087Y-88012986D01*
X116937318Y-87977943D01*
X116951775Y-87950321D01*
X116963890Y-87937004D01*
X116966888Y-87936211D01*
X116989717Y-87936364D01*
X117020182Y-87941816D01*
X117049951Y-87947032D01*
X117094741Y-87945749D01*
X117132008Y-87934286D01*
X117158918Y-87915012D01*
X117172639Y-87890293D01*
X117170341Y-87862495D01*
X117149191Y-87833987D01*
X117134357Y-87824017D01*
X117101850Y-87806796D01*
X117058898Y-87786531D01*
X117011021Y-87765698D01*
X116963735Y-87746776D01*
X116922561Y-87732242D01*
X116916222Y-87730815D01*
X116909670Y-87733281D01*
X116905432Y-87744038D01*
X116902934Y-87766449D01*
X116901604Y-87803879D01*
X116900870Y-87859691D01*
X116899557Y-87939287D01*
X116896692Y-88013415D01*
X116892206Y-88068790D01*
X116885906Y-88107005D01*
X116877600Y-88129654D01*
X116867095Y-88138330D01*
X116850280Y-88136476D01*
X116819582Y-88127238D01*
X116783061Y-88112589D01*
X116752559Y-88098149D01*
X116729169Y-88083311D01*
X116716932Y-88067426D01*
X116710723Y-88045761D01*
X116709270Y-88030306D01*
X116707948Y-87994234D01*
X116707170Y-87942577D01*
X116706964Y-87878737D01*
X116707353Y-87806116D01*
X116708363Y-87728116D01*
X116709497Y-87661497D01*
X116710901Y-87590757D01*
X116712488Y-87536452D01*
X116714563Y-87495566D01*
X116717432Y-87465082D01*
X116721400Y-87441983D01*
X116726774Y-87423255D01*
X116733860Y-87405880D01*
X116742962Y-87386842D01*
X116760344Y-87356123D01*
X116806238Y-87298890D01*
X116861731Y-87252532D01*
X116920991Y-87222435D01*
X116944038Y-87215927D01*
X117002132Y-87207300D01*
X117064407Y-87206147D01*
X117122622Y-87212355D01*
G37*
G36*
X114223209Y-87922040D02*
G01*
X114199580Y-87987265D01*
X114192611Y-87999529D01*
X114159762Y-88044279D01*
X114117099Y-88081509D01*
X114058776Y-88116589D01*
X114016518Y-88131328D01*
X113960586Y-88139656D01*
X113900591Y-88140666D01*
X113844672Y-88134243D01*
X113800965Y-88120269D01*
X113788669Y-88114063D01*
X113769472Y-88106007D01*
X113760727Y-88108075D01*
X113756190Y-88120269D01*
X113746474Y-88135082D01*
X113725544Y-88139087D01*
X113691213Y-88131421D01*
X113641117Y-88111913D01*
X113609396Y-88097361D01*
X113586434Y-88083020D01*
X113574468Y-88067406D01*
X113568360Y-88045853D01*
X113566905Y-88030379D01*
X113565581Y-87994290D01*
X113564803Y-87942619D01*
X113564629Y-87888994D01*
X113759760Y-87888994D01*
X113759841Y-87928998D01*
X113760239Y-87982754D01*
X113760910Y-88025639D01*
X113761793Y-88054029D01*
X113762823Y-88064298D01*
X113764492Y-88061883D01*
X113771111Y-88044583D01*
X113780117Y-88016101D01*
X113787661Y-87991761D01*
X113801678Y-87957880D01*
X113817886Y-87940378D01*
X113840423Y-87935936D01*
X113873424Y-87941236D01*
X113904262Y-87946457D01*
X113955476Y-87945675D01*
X113995766Y-87932252D01*
X114022137Y-87907487D01*
X114031593Y-87872678D01*
X114029439Y-87860091D01*
X114015829Y-87840188D01*
X113987762Y-87819604D01*
X113943016Y-87796846D01*
X113879367Y-87770420D01*
X113859938Y-87762744D01*
X113819808Y-87746152D01*
X113789130Y-87732463D01*
X113773352Y-87724059D01*
X113771315Y-87723011D01*
X113766631Y-87727055D01*
X113763330Y-87743288D01*
X113761216Y-87774097D01*
X113760091Y-87821870D01*
X113759760Y-87888994D01*
X113564629Y-87888994D01*
X113564596Y-87878766D01*
X113564986Y-87806134D01*
X113565997Y-87728125D01*
X113567131Y-87661500D01*
X113568537Y-87590752D01*
X113570124Y-87536440D01*
X113572199Y-87495547D01*
X113575068Y-87465058D01*
X113579036Y-87441957D01*
X113584408Y-87423228D01*
X113591492Y-87405856D01*
X113600591Y-87386824D01*
X113611484Y-87366273D01*
X113661625Y-87299832D01*
X113726675Y-87249097D01*
X113805998Y-87214602D01*
X113812162Y-87212762D01*
X113876491Y-87198583D01*
X113927208Y-87198037D01*
X113990335Y-87212983D01*
X114063955Y-87248644D01*
X114126537Y-87300377D01*
X114175762Y-87365621D01*
X114209306Y-87441815D01*
X114224850Y-87526398D01*
X114225722Y-87541064D01*
X114225794Y-87586354D01*
X114218326Y-87612835D01*
X114200462Y-87622548D01*
X114169344Y-87617537D01*
X114122118Y-87599841D01*
X114097238Y-87589364D01*
X114068595Y-87575413D01*
X114052031Y-87561833D01*
X114042472Y-87543768D01*
X114034841Y-87516365D01*
X114030453Y-87500934D01*
X114005051Y-87448988D01*
X113969083Y-87412790D01*
X113925545Y-87393826D01*
X113877436Y-87393587D01*
X113827754Y-87413559D01*
X113809395Y-87428889D01*
X113788672Y-87453235D01*
X113771255Y-87479594D01*
X113761019Y-87502027D01*
X113761842Y-87514592D01*
X113770932Y-87518621D01*
X113796506Y-87529166D01*
X113834351Y-87544466D01*
X113880296Y-87562823D01*
X113923462Y-87580175D01*
X114001168Y-87612930D01*
X114061981Y-87641347D01*
X114108512Y-87666943D01*
X114143369Y-87691233D01*
X114169164Y-87715736D01*
X114188504Y-87741968D01*
X114209803Y-87784374D01*
X114226561Y-87853160D01*
X114225611Y-87872678D01*
X114223209Y-87922040D01*
G37*
G36*
X120294728Y-83838188D02*
G01*
X120293153Y-83939162D01*
X120291274Y-84020239D01*
X120289063Y-84082288D01*
X120286488Y-84126177D01*
X120283521Y-84152774D01*
X120280130Y-84162949D01*
X120269043Y-84168262D01*
X120235462Y-84179768D01*
X120186786Y-84193558D01*
X120126997Y-84208685D01*
X120060073Y-84224205D01*
X119989997Y-84239170D01*
X119920750Y-84252636D01*
X119856311Y-84263656D01*
X119827099Y-84268307D01*
X119763119Y-84279065D01*
X119703997Y-84289721D01*
X119655285Y-84299255D01*
X119622536Y-84306646D01*
X119597139Y-84312984D01*
X119554235Y-84322679D01*
X119520205Y-84329207D01*
X119516821Y-84329801D01*
X119470888Y-84347819D01*
X119428451Y-84380538D01*
X119397451Y-84421958D01*
X119394832Y-84427151D01*
X119388094Y-84441676D01*
X119379633Y-84461720D01*
X119368491Y-84489764D01*
X119353709Y-84528294D01*
X119334328Y-84579793D01*
X119309389Y-84646745D01*
X119277935Y-84731635D01*
X119272006Y-84747540D01*
X119251409Y-84801420D01*
X119230807Y-84853614D01*
X119213888Y-84894735D01*
X119201173Y-84928796D01*
X119187821Y-84990435D01*
X119188903Y-85044344D01*
X119204616Y-85086436D01*
X119219003Y-85108122D01*
X119241410Y-85141891D01*
X119265943Y-85178859D01*
X119280995Y-85201128D01*
X119309209Y-85242032D01*
X119344648Y-85292821D01*
X119384256Y-85349121D01*
X119424978Y-85406558D01*
X119453432Y-85446977D01*
X119504327Y-85521817D01*
X119548256Y-85589845D01*
X119583976Y-85648962D01*
X119610245Y-85697070D01*
X119625821Y-85732074D01*
X119629463Y-85751875D01*
X119624904Y-85760101D01*
X119606197Y-85783606D01*
X119575124Y-85818573D01*
X119533778Y-85862930D01*
X119484249Y-85914603D01*
X119428628Y-85971517D01*
X119369005Y-86031599D01*
X119307470Y-86092775D01*
X119246114Y-86152971D01*
X119187029Y-86210114D01*
X119132304Y-86262129D01*
X119084030Y-86306944D01*
X119044298Y-86342483D01*
X119015199Y-86366674D01*
X118998822Y-86377443D01*
X118989533Y-86378252D01*
X118959016Y-86369779D01*
X118913018Y-86348425D01*
X118852475Y-86314723D01*
X118778323Y-86269212D01*
X118691498Y-86212427D01*
X118592937Y-86144905D01*
X118506300Y-86085148D01*
X118432895Y-86036348D01*
X118373390Y-85999197D01*
X118326164Y-85972792D01*
X118289599Y-85956228D01*
X118262075Y-85948603D01*
X118241973Y-85949013D01*
X118226975Y-85954465D01*
X118194772Y-85969392D01*
X118153182Y-85990733D01*
X118107499Y-86015854D01*
X118070173Y-86036591D01*
X118016332Y-86063530D01*
X117975324Y-86078642D01*
X117944126Y-86082558D01*
X117919715Y-86075910D01*
X117899065Y-86059327D01*
X117894900Y-86054265D01*
X117877580Y-86025961D01*
X117858127Y-85985932D01*
X117840015Y-85941129D01*
X117829694Y-85913640D01*
X117809546Y-85862258D01*
X117784588Y-85800334D01*
X117757032Y-85733337D01*
X117729089Y-85666738D01*
X117708092Y-85617247D01*
X117668591Y-85524117D01*
X117635932Y-85447068D01*
X117608981Y-85383412D01*
X117586602Y-85330463D01*
X117567661Y-85285534D01*
X117551022Y-85245939D01*
X117535552Y-85208991D01*
X117520114Y-85172004D01*
X117499994Y-85122738D01*
X117473586Y-85056073D01*
X117445097Y-84982522D01*
X117416228Y-84906596D01*
X117388675Y-84832807D01*
X117364136Y-84765664D01*
X117344310Y-84709678D01*
X117330895Y-84669360D01*
X117328433Y-84661669D01*
X117322024Y-84642137D01*
X117318371Y-84626172D01*
X117319109Y-84611465D01*
X117325876Y-84595709D01*
X117340306Y-84576596D01*
X117364035Y-84551818D01*
X117398701Y-84519068D01*
X117445939Y-84476038D01*
X117507385Y-84420420D01*
X117554593Y-84376768D01*
X117626113Y-84305924D01*
X117682608Y-84242266D01*
X117726261Y-84182996D01*
X117759258Y-84125315D01*
X117783783Y-84066424D01*
X117800160Y-84016024D01*
X117834636Y-83868025D01*
X117847848Y-83723255D01*
X117839847Y-83582193D01*
X117810684Y-83445318D01*
X117760412Y-83313108D01*
X117689081Y-83186044D01*
X117614142Y-83088066D01*
X117520175Y-82996636D01*
X117414781Y-82921422D01*
X117300385Y-82864134D01*
X117179409Y-82826482D01*
X117163535Y-82823264D01*
X117095421Y-82813900D01*
X117017320Y-82808547D01*
X116935505Y-82807195D01*
X116856252Y-82809837D01*
X116785832Y-82816464D01*
X116730520Y-82827068D01*
X116677210Y-82843304D01*
X116545848Y-82897304D01*
X116424875Y-82967500D01*
X116316599Y-83052185D01*
X116223330Y-83149651D01*
X116147377Y-83258189D01*
X116131591Y-83286798D01*
X116086091Y-83395636D01*
X116055930Y-83514634D01*
X116041160Y-83639653D01*
X116041829Y-83766556D01*
X116057988Y-83891205D01*
X116089688Y-84009461D01*
X116136977Y-84117186D01*
X116207147Y-84228338D01*
X116298075Y-84340506D01*
X116401471Y-84441962D01*
X116512570Y-84527499D01*
X116541942Y-84547406D01*
X116566088Y-84565812D01*
X116578123Y-84580335D01*
X116581469Y-84595486D01*
X116579551Y-84615777D01*
X116570270Y-84661054D01*
X116550391Y-84728169D01*
X116522070Y-84806676D01*
X116486647Y-84892575D01*
X116479416Y-84909198D01*
X116444804Y-84989889D01*
X116405323Y-85083394D01*
X116363463Y-85183716D01*
X116321720Y-85284854D01*
X116282584Y-85380809D01*
X116248550Y-85465582D01*
X116240388Y-85486088D01*
X116187243Y-85617206D01*
X116138300Y-85733705D01*
X116094019Y-85834588D01*
X116054860Y-85918857D01*
X116021286Y-85985516D01*
X115993756Y-86033569D01*
X115972733Y-86062017D01*
X115965052Y-86066705D01*
X115935887Y-86067843D01*
X115890347Y-86056922D01*
X115829417Y-86034221D01*
X115754082Y-86000020D01*
X115738686Y-85992680D01*
X115695476Y-85973302D01*
X115658226Y-85958235D01*
X115633646Y-85950252D01*
X115602686Y-85948415D01*
X115555184Y-85961755D01*
X115510360Y-85992431D01*
X115496014Y-86004425D01*
X115462706Y-86029507D01*
X115416733Y-86062446D01*
X115361386Y-86101018D01*
X115299954Y-86142998D01*
X115235728Y-86186163D01*
X115171997Y-86228289D01*
X115112052Y-86267150D01*
X115059183Y-86300523D01*
X115016679Y-86326184D01*
X114996729Y-86337682D01*
X114952750Y-86361734D01*
X114922378Y-86375604D01*
X114902303Y-86380644D01*
X114889211Y-86378205D01*
X114863883Y-86361828D01*
X114822198Y-86329318D01*
X114770314Y-86284848D01*
X114710619Y-86230684D01*
X114645503Y-86169093D01*
X114577355Y-86102342D01*
X114508565Y-86032697D01*
X114441520Y-85962425D01*
X114378611Y-85893793D01*
X114344464Y-85855547D01*
X114310367Y-85816555D01*
X114287532Y-85788518D01*
X114274053Y-85768488D01*
X114268023Y-85753519D01*
X114267535Y-85740663D01*
X114270682Y-85726971D01*
X114289008Y-85680641D01*
X114321499Y-85620284D01*
X114366328Y-85549555D01*
X114421980Y-85471019D01*
X114444116Y-85440677D01*
X114477175Y-85393628D01*
X114505883Y-85350832D01*
X114525805Y-85318793D01*
X114545287Y-85286477D01*
X114574061Y-85241620D01*
X114602815Y-85199187D01*
X114635125Y-85150829D01*
X114672127Y-85084416D01*
X114693067Y-85027562D01*
X114698678Y-84978027D01*
X114689692Y-84933573D01*
X114684518Y-84919770D01*
X114671613Y-84885241D01*
X114653852Y-84837658D01*
X114632863Y-84781378D01*
X114610271Y-84720762D01*
X114589821Y-84666003D01*
X114561188Y-84590023D01*
X114538075Y-84529865D01*
X114519322Y-84482637D01*
X114503774Y-84445450D01*
X114490271Y-84415413D01*
X114477657Y-84389636D01*
X114475903Y-84386214D01*
X114465085Y-84367567D01*
X114452489Y-84354649D01*
X114433251Y-84344862D01*
X114402505Y-84335605D01*
X114355386Y-84324275D01*
X114330313Y-84318719D01*
X114274619Y-84307346D01*
X114207499Y-84294481D01*
X114135260Y-84281321D01*
X114064212Y-84269063D01*
X114016997Y-84261008D01*
X113950783Y-84249167D01*
X113890551Y-84237797D01*
X113841465Y-84227882D01*
X113808690Y-84220405D01*
X113772075Y-84210880D01*
X113708433Y-84193985D01*
X113662009Y-84181024D01*
X113630136Y-84171197D01*
X113610149Y-84163708D01*
X113599379Y-84157756D01*
X113598929Y-84157343D01*
X113595459Y-84148573D01*
X113592606Y-84129261D01*
X113590324Y-84097807D01*
X113588564Y-84052611D01*
X113587278Y-83992071D01*
X113586418Y-83914589D01*
X113585937Y-83818562D01*
X113585788Y-83702392D01*
X113585788Y-83681261D01*
X113779352Y-83681261D01*
X113780024Y-83748552D01*
X113783033Y-83815301D01*
X113788086Y-83876215D01*
X113794891Y-83926001D01*
X113803152Y-83959365D01*
X113809991Y-83969482D01*
X113838849Y-83989134D01*
X113887607Y-84009311D01*
X113955077Y-84029628D01*
X114040072Y-84049699D01*
X114141406Y-84069139D01*
X114145912Y-84069925D01*
X114273134Y-84093276D01*
X114381940Y-84115639D01*
X114471516Y-84136821D01*
X114541045Y-84156630D01*
X114589714Y-84174875D01*
X114604474Y-84181695D01*
X114628877Y-84194957D01*
X114642913Y-84209764D01*
X114651379Y-84232724D01*
X114659069Y-84270448D01*
X114660150Y-84275958D01*
X114675128Y-84334245D01*
X114699707Y-84409976D01*
X114733316Y-84501588D01*
X114775384Y-84607516D01*
X114825342Y-84726199D01*
X114829349Y-84735502D01*
X114855810Y-84797504D01*
X114882123Y-84859996D01*
X114905438Y-84916171D01*
X114922905Y-84959223D01*
X114957160Y-85045457D01*
X114798973Y-85280259D01*
X114769319Y-85324754D01*
X114722750Y-85396420D01*
X114678548Y-85466467D01*
X114639221Y-85530833D01*
X114607278Y-85585458D01*
X114585227Y-85626279D01*
X114529668Y-85737496D01*
X114636165Y-85852501D01*
X114667494Y-85886068D01*
X114737407Y-85958444D01*
X114796257Y-86015058D01*
X114845474Y-86057070D01*
X114886488Y-86085642D01*
X114920727Y-86101934D01*
X114949620Y-86107106D01*
X114962969Y-86105049D01*
X114999144Y-86090958D01*
X115048521Y-86064583D01*
X115108999Y-86027182D01*
X115178472Y-85980016D01*
X115254837Y-85924345D01*
X115303828Y-85888099D01*
X115378169Y-85836369D01*
X115442148Y-85797018D01*
X115499060Y-85768269D01*
X115552202Y-85748342D01*
X115604870Y-85735458D01*
X115605032Y-85735428D01*
X115636703Y-85730143D01*
X115661104Y-85729077D01*
X115684983Y-85733467D01*
X115715086Y-85744551D01*
X115758161Y-85763566D01*
X115784620Y-85775191D01*
X115824163Y-85790302D01*
X115850233Y-85796006D01*
X115866379Y-85793279D01*
X115869279Y-85790637D01*
X115882190Y-85770915D01*
X115901601Y-85734887D01*
X115926143Y-85685285D01*
X115954448Y-85624839D01*
X115985148Y-85556279D01*
X116000264Y-85521770D01*
X116046475Y-85415687D01*
X116086428Y-85322709D01*
X116122070Y-85238041D01*
X116155346Y-85156887D01*
X116188205Y-85074453D01*
X116222592Y-84985944D01*
X116260455Y-84886564D01*
X116303739Y-84771520D01*
X116337687Y-84680925D01*
X116232814Y-84571662D01*
X116152731Y-84483815D01*
X116055122Y-84360922D01*
X115976665Y-84240758D01*
X115917977Y-84124298D01*
X115879672Y-84012516D01*
X115872740Y-83977729D01*
X115865184Y-83914252D01*
X115860132Y-83838007D01*
X115857633Y-83754147D01*
X115857738Y-83667822D01*
X115860496Y-83584184D01*
X115865958Y-83508383D01*
X115874174Y-83445571D01*
X115880653Y-83412514D01*
X115920140Y-83281102D01*
X115980417Y-83155507D01*
X116061233Y-83036185D01*
X116162336Y-82923592D01*
X116219654Y-82870216D01*
X116339681Y-82776562D01*
X116464603Y-82703386D01*
X116596128Y-82649922D01*
X116735968Y-82615401D01*
X116885831Y-82599058D01*
X116915300Y-82597972D01*
X117072353Y-82604188D01*
X117222205Y-82630913D01*
X117364700Y-82678086D01*
X117499682Y-82745646D01*
X117626995Y-82833529D01*
X117746483Y-82941674D01*
X117837711Y-83047959D01*
X117919073Y-83174027D01*
X117981621Y-83310110D01*
X118024936Y-83455076D01*
X118048599Y-83607791D01*
X118052189Y-83767122D01*
X118046628Y-83844656D01*
X118026200Y-83968759D01*
X117990866Y-84087135D01*
X117939458Y-84202230D01*
X117870805Y-84316492D01*
X117783741Y-84432368D01*
X117677095Y-84552304D01*
X117561790Y-84673488D01*
X117578761Y-84724308D01*
X117588159Y-84751643D01*
X117604620Y-84798236D01*
X117625622Y-84856886D01*
X117649557Y-84923145D01*
X117674818Y-84992562D01*
X117699796Y-85060688D01*
X117722883Y-85123074D01*
X117723693Y-85125249D01*
X117776927Y-85264149D01*
X117828224Y-85389204D01*
X117880650Y-85507614D01*
X117937270Y-85626579D01*
X118024347Y-85803886D01*
X118058556Y-85796484D01*
X118061634Y-85795732D01*
X118089965Y-85785498D01*
X118128492Y-85768134D01*
X118169806Y-85746938D01*
X118214879Y-85724287D01*
X118265239Y-85706957D01*
X118307392Y-85704832D01*
X118345535Y-85717898D01*
X118383869Y-85746138D01*
X118383909Y-85746174D01*
X118408012Y-85765595D01*
X118447053Y-85794460D01*
X118497670Y-85830488D01*
X118556499Y-85871400D01*
X118620177Y-85914914D01*
X118685340Y-85958751D01*
X118748625Y-86000629D01*
X118806668Y-86038270D01*
X118856105Y-86069391D01*
X118893573Y-86091713D01*
X118895491Y-86092796D01*
X118927964Y-86111003D01*
X118951483Y-86123934D01*
X118961074Y-86128853D01*
X118962164Y-86128339D01*
X118975029Y-86117225D01*
X118999761Y-86093519D01*
X119033897Y-86059753D01*
X119074972Y-86018462D01*
X119120521Y-85972178D01*
X119168079Y-85923436D01*
X119215183Y-85874768D01*
X119259367Y-85828709D01*
X119298167Y-85787790D01*
X119329118Y-85754547D01*
X119349757Y-85731513D01*
X119357618Y-85721220D01*
X119356750Y-85709886D01*
X119347162Y-85684160D01*
X119327422Y-85645539D01*
X119296986Y-85593098D01*
X119255312Y-85525909D01*
X119201854Y-85443046D01*
X119136069Y-85343581D01*
X119114168Y-85310624D01*
X119072462Y-85247099D01*
X119034200Y-85187857D01*
X119001565Y-85136331D01*
X118976744Y-85095952D01*
X118961924Y-85070153D01*
X118931561Y-85012162D01*
X118981288Y-84915392D01*
X119008390Y-84860920D01*
X119043813Y-84784110D01*
X119080523Y-84697809D01*
X119120118Y-84598220D01*
X119164198Y-84481550D01*
X119187355Y-84419526D01*
X119211869Y-84354671D01*
X119234748Y-84294857D01*
X119253071Y-84247774D01*
X119289575Y-84155351D01*
X119359878Y-84142308D01*
X119362544Y-84141815D01*
X119397284Y-84135492D01*
X119448317Y-84126323D01*
X119511035Y-84115130D01*
X119580827Y-84102737D01*
X119653082Y-84089967D01*
X119706979Y-84080423D01*
X119777839Y-84067597D01*
X119833390Y-84056947D01*
X119877402Y-84047590D01*
X119913646Y-84038638D01*
X119945892Y-84029209D01*
X119977912Y-84018416D01*
X120013476Y-84005374D01*
X120040777Y-83993865D01*
X120063537Y-83979256D01*
X120079909Y-83959404D01*
X120091157Y-83931008D01*
X120098543Y-83890768D01*
X120103331Y-83835382D01*
X120106784Y-83761550D01*
X120107532Y-83731522D01*
X120107368Y-83674062D01*
X120105608Y-83613007D01*
X120102532Y-83552580D01*
X120098424Y-83497004D01*
X120093566Y-83450503D01*
X120088240Y-83417301D01*
X120082729Y-83401622D01*
X120078024Y-83399528D01*
X120053630Y-83393004D01*
X120010070Y-83383256D01*
X119948812Y-83370584D01*
X119871321Y-83355287D01*
X119779064Y-83337664D01*
X119673507Y-83318016D01*
X119665193Y-83316480D01*
X119574270Y-83298957D01*
X119490596Y-83281534D01*
X119417014Y-83264884D01*
X119356370Y-83249677D01*
X119311506Y-83236588D01*
X119285268Y-83226286D01*
X119276781Y-83214564D01*
X119261036Y-83185233D01*
X119239309Y-83140992D01*
X119212752Y-83084480D01*
X119182518Y-83018334D01*
X119149758Y-82945192D01*
X119115625Y-82867692D01*
X119081272Y-82788471D01*
X119047851Y-82710168D01*
X119016515Y-82635419D01*
X118988415Y-82566864D01*
X118964706Y-82507139D01*
X118946538Y-82458882D01*
X118935065Y-82424732D01*
X118921700Y-82379472D01*
X118993025Y-82272506D01*
X119000842Y-82260798D01*
X119036287Y-82207940D01*
X119078172Y-82145749D01*
X119121910Y-82081029D01*
X119162910Y-82020585D01*
X119201552Y-81962559D01*
X119242564Y-81898398D01*
X119280022Y-81837235D01*
X119312185Y-81782063D01*
X119337313Y-81735874D01*
X119353666Y-81701664D01*
X119359504Y-81682424D01*
X119355564Y-81672736D01*
X119339047Y-81648429D01*
X119312252Y-81614256D01*
X119278016Y-81573488D01*
X119239173Y-81529399D01*
X119198561Y-81485260D01*
X119159013Y-81444343D01*
X119123365Y-81409921D01*
X119104166Y-81392928D01*
X119064269Y-81360523D01*
X119022898Y-81329867D01*
X118984545Y-81304067D01*
X118953700Y-81286232D01*
X118934853Y-81279469D01*
X118926715Y-81282731D01*
X118902803Y-81296316D01*
X118867199Y-81318348D01*
X118823408Y-81346532D01*
X118774939Y-81378569D01*
X118725300Y-81412163D01*
X118677997Y-81445018D01*
X118636538Y-81474835D01*
X118602296Y-81499944D01*
X118530413Y-81551510D01*
X118469279Y-81593275D01*
X118414590Y-81628020D01*
X118362040Y-81658529D01*
X118307326Y-81687581D01*
X118211174Y-81736727D01*
X118086730Y-81686690D01*
X118044948Y-81669697D01*
X117979879Y-81642675D01*
X117916636Y-81615857D01*
X117864427Y-81593119D01*
X117812633Y-81570104D01*
X117740224Y-81538073D01*
X117683124Y-81513066D01*
X117638511Y-81493875D01*
X117603566Y-81479292D01*
X117575466Y-81468109D01*
X117551390Y-81459119D01*
X117516443Y-81444587D01*
X117471854Y-81416758D01*
X117437357Y-81379799D01*
X117410946Y-81330582D01*
X117390617Y-81265976D01*
X117374363Y-81182852D01*
X117370859Y-81161730D01*
X117360959Y-81108311D01*
X117350625Y-81059534D01*
X117341597Y-81023844D01*
X117340567Y-81020223D01*
X117332596Y-80986033D01*
X117323062Y-80937195D01*
X117313071Y-80879686D01*
X117303732Y-80819487D01*
X117302267Y-80809561D01*
X117292506Y-80749896D01*
X117281942Y-80694322D01*
X117271755Y-80648666D01*
X117263124Y-80618757D01*
X117254293Y-80598235D01*
X117240611Y-80578014D01*
X117221351Y-80562844D01*
X117193821Y-80552046D01*
X117155330Y-80544941D01*
X117103187Y-80540849D01*
X117034702Y-80539090D01*
X116947183Y-80538987D01*
X116935299Y-80539052D01*
X116864651Y-80539783D01*
X116811527Y-80541238D01*
X116772241Y-80543741D01*
X116743106Y-80547619D01*
X116720434Y-80553199D01*
X116700541Y-80560806D01*
X116694573Y-80563479D01*
X116671249Y-80575956D01*
X116655888Y-80591226D01*
X116643979Y-80615365D01*
X116631008Y-80654448D01*
X116623010Y-80682947D01*
X116610322Y-80735101D01*
X116597383Y-80794759D01*
X116586021Y-80853817D01*
X116575987Y-80909855D01*
X116555165Y-81022521D01*
X116536631Y-81116410D01*
X116519828Y-81193434D01*
X116504198Y-81255499D01*
X116489183Y-81304517D01*
X116474226Y-81342397D01*
X116458770Y-81371047D01*
X116442256Y-81392377D01*
X116424128Y-81408297D01*
X116391224Y-81428668D01*
X116340403Y-81455211D01*
X116276069Y-81485694D01*
X116201793Y-81518487D01*
X116121151Y-81551960D01*
X116037714Y-81584485D01*
X115998425Y-81599886D01*
X115929584Y-81628736D01*
X115858686Y-81660235D01*
X115796079Y-81689868D01*
X115674051Y-81750197D01*
X115584050Y-81698205D01*
X115581768Y-81696881D01*
X115543167Y-81673425D01*
X115491567Y-81640684D01*
X115431467Y-81601585D01*
X115367367Y-81559050D01*
X115303767Y-81516007D01*
X115264355Y-81489153D01*
X115167317Y-81424224D01*
X115085625Y-81371464D01*
X115019652Y-81331098D01*
X114969773Y-81303347D01*
X114936361Y-81288436D01*
X114919790Y-81286588D01*
X114915371Y-81289343D01*
X114883053Y-81314066D01*
X114840956Y-81351659D01*
X114792378Y-81398677D01*
X114740616Y-81451674D01*
X114688970Y-81507202D01*
X114640737Y-81561815D01*
X114599215Y-81612066D01*
X114567704Y-81654509D01*
X114554011Y-81675521D01*
X114547100Y-81693610D01*
X114549501Y-81713290D01*
X114560455Y-81743916D01*
X114561589Y-81746657D01*
X114574582Y-81771605D01*
X114597733Y-81811217D01*
X114629295Y-81862685D01*
X114667520Y-81923196D01*
X114710663Y-81989939D01*
X114756975Y-82060105D01*
X114783955Y-82100691D01*
X114845137Y-82194055D01*
X114894107Y-82271034D01*
X114931350Y-82332444D01*
X114957350Y-82379102D01*
X114972595Y-82411826D01*
X114977569Y-82431432D01*
X114975941Y-82436378D01*
X114966136Y-82457457D01*
X114949435Y-82490401D01*
X114928120Y-82530628D01*
X114928073Y-82530715D01*
X114907966Y-82570184D01*
X114881851Y-82624730D01*
X114852034Y-82689350D01*
X114820823Y-82759043D01*
X114790526Y-82828810D01*
X114776251Y-82862232D01*
X114734871Y-82958547D01*
X114700606Y-83037089D01*
X114672560Y-83099645D01*
X114649837Y-83147999D01*
X114631544Y-83183939D01*
X114616783Y-83209249D01*
X114604661Y-83225716D01*
X114594282Y-83235126D01*
X114584750Y-83239263D01*
X114578246Y-83240664D01*
X114551007Y-83246369D01*
X114507583Y-83255370D01*
X114451384Y-83266964D01*
X114385819Y-83280445D01*
X114314298Y-83295109D01*
X114296772Y-83298722D01*
X114215772Y-83315946D01*
X114134056Y-83334086D01*
X114057138Y-83351873D01*
X113990534Y-83368036D01*
X113939759Y-83381307D01*
X113913740Y-83388461D01*
X113868293Y-83401424D01*
X113836284Y-83413753D01*
X113815003Y-83429149D01*
X113801741Y-83451309D01*
X113793788Y-83483934D01*
X113788434Y-83530724D01*
X113782971Y-83595377D01*
X113781312Y-83618722D01*
X113779352Y-83681261D01*
X113585788Y-83681261D01*
X113585788Y-83257532D01*
X113637436Y-83235082D01*
X113638517Y-83234614D01*
X113675316Y-83220665D01*
X113721913Y-83206625D01*
X113780661Y-83191947D01*
X113853913Y-83176086D01*
X113944021Y-83158497D01*
X114053339Y-83138633D01*
X114145082Y-83122219D01*
X114223308Y-83107694D01*
X114285045Y-83095417D01*
X114332848Y-83084769D01*
X114369275Y-83075133D01*
X114396881Y-83065890D01*
X114418223Y-83056422D01*
X114435858Y-83046110D01*
X114441847Y-83042032D01*
X114478352Y-83010154D01*
X114512534Y-82966655D01*
X114545847Y-82909074D01*
X114579744Y-82834951D01*
X114615681Y-82741824D01*
X114632892Y-82697650D01*
X114657252Y-82640912D01*
X114681147Y-82590150D01*
X114682941Y-82586542D01*
X114711186Y-82516813D01*
X114724407Y-82454234D01*
X114729749Y-82393879D01*
X114523737Y-82083990D01*
X114504265Y-82054689D01*
X114443081Y-81962419D01*
X114392798Y-81886121D01*
X114352443Y-81824184D01*
X114321044Y-81775000D01*
X114297631Y-81736957D01*
X114281232Y-81708447D01*
X114270875Y-81687860D01*
X114265588Y-81673586D01*
X114264399Y-81664016D01*
X114266339Y-81657538D01*
X114275512Y-81643144D01*
X114303880Y-81605265D01*
X114343340Y-81557897D01*
X114391757Y-81503178D01*
X114446998Y-81443250D01*
X114506931Y-81380254D01*
X114569420Y-81316329D01*
X114632332Y-81253617D01*
X114693533Y-81194257D01*
X114750891Y-81140390D01*
X114802270Y-81094157D01*
X114845538Y-81057698D01*
X114878560Y-81033153D01*
X114899204Y-81022664D01*
X114921956Y-81021336D01*
X114959688Y-81030212D01*
X115005436Y-81052672D01*
X115061181Y-81089749D01*
X115128899Y-81142475D01*
X115168946Y-81174552D01*
X115209674Y-81205739D01*
X115243202Y-81229932D01*
X115264815Y-81243622D01*
X115267772Y-81245203D01*
X115292236Y-81259688D01*
X115329325Y-81282929D01*
X115374538Y-81312072D01*
X115423373Y-81344258D01*
X115504736Y-81397534D01*
X115572969Y-81440181D01*
X115626605Y-81471300D01*
X115664729Y-81490361D01*
X115686426Y-81496832D01*
X115699799Y-81494066D01*
X115733588Y-81483565D01*
X115785781Y-81465555D01*
X115855414Y-81440378D01*
X115941526Y-81408377D01*
X116043151Y-81369895D01*
X116063273Y-81361979D01*
X116119839Y-81337778D01*
X116174896Y-81311876D01*
X116218922Y-81288674D01*
X116291398Y-81246861D01*
X116313677Y-81151663D01*
X116316672Y-81138590D01*
X116329487Y-81078072D01*
X116342359Y-81011375D01*
X116352903Y-80950714D01*
X116360846Y-80902918D01*
X116377483Y-80810794D01*
X116396004Y-80716495D01*
X116415390Y-80624758D01*
X116434625Y-80540320D01*
X116452690Y-80467917D01*
X116468568Y-80412287D01*
X116472948Y-80400273D01*
X116484575Y-80383221D01*
X116505378Y-80370792D01*
X116541426Y-80358508D01*
X116548648Y-80356449D01*
X116569443Y-80351723D01*
X116594702Y-80347940D01*
X116626894Y-80344987D01*
X116668487Y-80342754D01*
X116721951Y-80341128D01*
X116789754Y-80339999D01*
X116874365Y-80339254D01*
X116978254Y-80338783D01*
X117002672Y-80338711D01*
X117107979Y-80338668D01*
X117194006Y-80339243D01*
X117262793Y-80340595D01*
X117316380Y-80342885D01*
X117356807Y-80346272D01*
X117386113Y-80350916D01*
X117406338Y-80356977D01*
X117419522Y-80364615D01*
X117427706Y-80373989D01*
X117427893Y-80374370D01*
X117431568Y-80389370D01*
X117438152Y-80422700D01*
X117447131Y-80471507D01*
X117457991Y-80532940D01*
X117470217Y-80604145D01*
X117483295Y-80682269D01*
X117486493Y-80701525D01*
X117508374Y-80828132D01*
X117528592Y-80935221D01*
X117547569Y-81024655D01*
X117565724Y-81098300D01*
X117583476Y-81158017D01*
X117601248Y-81205672D01*
X117604633Y-81212647D01*
X117633692Y-81248214D01*
X117682716Y-81286055D01*
X117750413Y-81325480D01*
X117835491Y-81365802D01*
X117936656Y-81406330D01*
X118052617Y-81446375D01*
X118076999Y-81454176D01*
X118123503Y-81468347D01*
X118156630Y-81476566D01*
X118181465Y-81479623D01*
X118203091Y-81478307D01*
X118226590Y-81473409D01*
X118246022Y-81468310D01*
X118294452Y-81452165D01*
X118342771Y-81430141D01*
X118394994Y-81400011D01*
X118455134Y-81359547D01*
X118527203Y-81306521D01*
X118554036Y-81286319D01*
X118605136Y-81248353D01*
X118651773Y-81214320D01*
X118689681Y-81187317D01*
X118714593Y-81170444D01*
X118726526Y-81162513D01*
X118764387Y-81133979D01*
X118796637Y-81105486D01*
X118804993Y-81097388D01*
X118861389Y-81055358D01*
X118918584Y-81034745D01*
X118976841Y-81035594D01*
X119036427Y-81057950D01*
X119097607Y-81101858D01*
X119160647Y-81167364D01*
X119174200Y-81182835D01*
X119205584Y-81216865D01*
X119247656Y-81261200D01*
X119297545Y-81312852D01*
X119352382Y-81368833D01*
X119409295Y-81426156D01*
X119452378Y-81469595D01*
X119503187Y-81521786D01*
X119547600Y-81568476D01*
X119583340Y-81607229D01*
X119608128Y-81635609D01*
X119619687Y-81651179D01*
X119622939Y-81657962D01*
X119626056Y-81667738D01*
X119626057Y-81678913D01*
X119621793Y-81693554D01*
X119612114Y-81713724D01*
X119595870Y-81741491D01*
X119571909Y-81778918D01*
X119539083Y-81828072D01*
X119496240Y-81891018D01*
X119442230Y-81969820D01*
X119412798Y-82012730D01*
X119364255Y-82083532D01*
X119314873Y-82155590D01*
X119269034Y-82222509D01*
X119231121Y-82277895D01*
X119139369Y-82411996D01*
X119207856Y-82582347D01*
X119212782Y-82594586D01*
X119257209Y-82703397D01*
X119295537Y-82793668D01*
X119328787Y-82867190D01*
X119357983Y-82925752D01*
X119384145Y-82971142D01*
X119408297Y-83005150D01*
X119431461Y-83029565D01*
X119454658Y-83046177D01*
X119478911Y-83056774D01*
X119499631Y-83063119D01*
X119551172Y-83076762D01*
X119618862Y-83092420D01*
X119704044Y-83110384D01*
X119808058Y-83130942D01*
X119932244Y-83154383D01*
X119996506Y-83166745D01*
X120066649Y-83181178D01*
X120130766Y-83195297D01*
X120183723Y-83207968D01*
X120220386Y-83218056D01*
X120300043Y-83243073D01*
X120296180Y-83699212D01*
X120296030Y-83716449D01*
X120295869Y-83731522D01*
X120294728Y-83838188D01*
G37*
X161012258Y-84822500D02*
X160537742Y-84822500D01*
X161012258Y-83777500D02*
X160537742Y-83777500D01*
G36*
X123162046Y-94431550D02*
G01*
X123253301Y-94595775D01*
X123184781Y-94754674D01*
X123174293Y-94778838D01*
X123143596Y-94847620D01*
X123120830Y-94895706D01*
X123110306Y-94913885D01*
X123108863Y-94908008D01*
X123104892Y-94868321D01*
X123099679Y-94797375D01*
X123093736Y-94702433D01*
X123087573Y-94590761D01*
X123070793Y-94267325D01*
X123162046Y-94431550D01*
G37*
G36*
X124245501Y-97220302D02*
G01*
X124265281Y-97607381D01*
X124097816Y-97275892D01*
X124053417Y-97187858D01*
X124001176Y-97083876D01*
X123957259Y-96996014D01*
X123925290Y-96931529D01*
X123908895Y-96897677D01*
X123900753Y-96877669D01*
X123902505Y-96861912D01*
X123924025Y-96852625D01*
X123972866Y-96846964D01*
X124056580Y-96842087D01*
X124225722Y-96833223D01*
X124245501Y-97220302D01*
G37*
G36*
X124100791Y-94449388D02*
G01*
X124106196Y-94558921D01*
X124110648Y-94664176D01*
X124113310Y-94746644D01*
X124113972Y-94799786D01*
X124112428Y-94817061D01*
X124106900Y-94807821D01*
X124084634Y-94766343D01*
X124048795Y-94697713D01*
X124002808Y-94608510D01*
X123950100Y-94505313D01*
X123795845Y-94202003D01*
X123891431Y-94153269D01*
X123922667Y-94137739D01*
X123987241Y-94107807D01*
X124034048Y-94088906D01*
X124081079Y-94073279D01*
X124100791Y-94449388D01*
G37*
G36*
X123921029Y-91405001D02*
G01*
X123930461Y-91426994D01*
X123939929Y-91485939D01*
X123948783Y-91576598D01*
X123956373Y-91693732D01*
X123958086Y-91727706D01*
X123962256Y-91827240D01*
X123964287Y-91906444D01*
X123964047Y-91957961D01*
X123961405Y-91974433D01*
X123961308Y-91974341D01*
X123947883Y-91952161D01*
X123919516Y-91899922D01*
X123880308Y-91825319D01*
X123834360Y-91736046D01*
X123717473Y-91506804D01*
X123808687Y-91456426D01*
X123839529Y-91439957D01*
X123891097Y-91415190D01*
X123920541Y-91404967D01*
X123921029Y-91405001D01*
G37*
G36*
X125277433Y-93951622D02*
G01*
X125312256Y-93964376D01*
X125335355Y-93994308D01*
X125349807Y-94046446D01*
X125358687Y-94125819D01*
X125365074Y-94237453D01*
X125372045Y-94386376D01*
X125377246Y-94502464D01*
X125381185Y-94628331D01*
X125381409Y-94714342D01*
X125377917Y-94759679D01*
X125370715Y-94763522D01*
X125370001Y-94762162D01*
X125352340Y-94727805D01*
X125319165Y-94662735D01*
X125273831Y-94573551D01*
X125219692Y-94466850D01*
X125160100Y-94349228D01*
X124971310Y-93976324D01*
X125112633Y-93962517D01*
X125160302Y-93957540D01*
X125227806Y-93951019D01*
X125277433Y-93951622D01*
G37*
G36*
X124917444Y-91617495D02*
G01*
X124971622Y-91725472D01*
X125035858Y-91853819D01*
X125095657Y-91973623D01*
X125146130Y-92075089D01*
X125182385Y-92148418D01*
X125263203Y-92312865D01*
X124705380Y-92342099D01*
X124147558Y-92371333D01*
X124117768Y-92293144D01*
X124112505Y-92276447D01*
X124100087Y-92209138D01*
X124089245Y-92105424D01*
X124079796Y-91963288D01*
X124071558Y-91780708D01*
X124055139Y-91346460D01*
X124128341Y-91327463D01*
X124177393Y-91317880D01*
X124257821Y-91305655D01*
X124358229Y-91292419D01*
X124467433Y-91279743D01*
X124733320Y-91251020D01*
X124917444Y-91617495D01*
G37*
G36*
X123333323Y-93498772D02*
G01*
X123660041Y-94151377D01*
X123583736Y-94219037D01*
X123548765Y-94251084D01*
X123481422Y-94315993D01*
X123416700Y-94381481D01*
X123373412Y-94425296D01*
X123333361Y-94462636D01*
X123312951Y-94477440D01*
X123308698Y-94474534D01*
X123288373Y-94444133D01*
X123257764Y-94388402D01*
X123221650Y-94316975D01*
X123184808Y-94239482D01*
X123152020Y-94165553D01*
X123128062Y-94104824D01*
X123112497Y-94055186D01*
X123080922Y-93912464D01*
X123055142Y-93730843D01*
X123035437Y-93512567D01*
X123022090Y-93259883D01*
X123006605Y-92846166D01*
X123333323Y-93498772D01*
G37*
G36*
X125059547Y-91253512D02*
G01*
X125159297Y-91266597D01*
X125264782Y-91285891D01*
X125368087Y-91310461D01*
X125461289Y-91339371D01*
X125519528Y-91361768D01*
X125731876Y-91468442D01*
X125928775Y-91606134D01*
X126103630Y-91768927D01*
X126249843Y-91950908D01*
X126360820Y-92146158D01*
X126409444Y-92252793D01*
X125892700Y-92279874D01*
X125375956Y-92306955D01*
X125123458Y-91798620D01*
X125057336Y-91664858D01*
X124996716Y-91540952D01*
X124945175Y-91434292D01*
X124905198Y-91350060D01*
X124879270Y-91293438D01*
X124869876Y-91269612D01*
X124873895Y-91260852D01*
X124908928Y-91249706D01*
X124973451Y-91247570D01*
X125059547Y-91253512D01*
G37*
G36*
X124277972Y-95406906D02*
G01*
X124293477Y-95436160D01*
X124324655Y-95497121D01*
X124368721Y-95584210D01*
X124422885Y-95691848D01*
X124484363Y-95814455D01*
X124550367Y-95946452D01*
X124618109Y-96082261D01*
X124684805Y-96216301D01*
X124747667Y-96342995D01*
X124803907Y-96456762D01*
X124850739Y-96552025D01*
X124885377Y-96623203D01*
X124917875Y-96690616D01*
X124622041Y-96706120D01*
X124326206Y-96721624D01*
X124291562Y-96048224D01*
X124288606Y-95989660D01*
X124280715Y-95818741D01*
X124275116Y-95672544D01*
X124271889Y-95554605D01*
X124271109Y-95468456D01*
X124272857Y-95417631D01*
X124277213Y-95405662D01*
X124277972Y-95406906D01*
G37*
G36*
X123477992Y-94813564D02*
G01*
X123498639Y-94830925D01*
X123609450Y-94916358D01*
X123717121Y-94982816D01*
X123836719Y-95038600D01*
X123983308Y-95092013D01*
X124137155Y-95143256D01*
X124178701Y-95936014D01*
X124220248Y-96728773D01*
X124024200Y-96732932D01*
X123828153Y-96737092D01*
X123489026Y-96053068D01*
X123416124Y-95905176D01*
X123343510Y-95756040D01*
X123279159Y-95621975D01*
X123225229Y-95507558D01*
X123183875Y-95417370D01*
X123157256Y-95355988D01*
X123147527Y-95327993D01*
X123151283Y-95264286D01*
X123167512Y-95170164D01*
X123193438Y-95060602D01*
X123226110Y-94947991D01*
X123262580Y-94844719D01*
X123325978Y-94684510D01*
X123477992Y-94813564D01*
G37*
G36*
X125571229Y-92934719D02*
G01*
X125607648Y-93007097D01*
X125682638Y-93156303D01*
X125760705Y-93311828D01*
X125839080Y-93468140D01*
X125914996Y-93619704D01*
X125985680Y-93760988D01*
X126048364Y-93886456D01*
X126100279Y-93990576D01*
X126138655Y-94067813D01*
X126160724Y-94112634D01*
X126166896Y-94125375D01*
X126180154Y-94155875D01*
X126178664Y-94168210D01*
X126157155Y-94161223D01*
X126110349Y-94133761D01*
X126032971Y-94084668D01*
X126027118Y-94080999D01*
X125946106Y-94037713D01*
X125840860Y-93990457D01*
X125726741Y-93945343D01*
X125619114Y-93908480D01*
X125533342Y-93885977D01*
X125474269Y-93874721D01*
X125441913Y-93244141D01*
X125409556Y-92613560D01*
X125571229Y-92934719D01*
G37*
G36*
X125221813Y-97299551D02*
G01*
X125281133Y-97420127D01*
X125341521Y-97544749D01*
X125393001Y-97653005D01*
X125433040Y-97739497D01*
X125459105Y-97798824D01*
X125468659Y-97825586D01*
X125468679Y-97826286D01*
X125463470Y-97836321D01*
X125444559Y-97844457D01*
X125407153Y-97851154D01*
X125346456Y-97856871D01*
X125257674Y-97862068D01*
X125136014Y-97867204D01*
X124976681Y-97872738D01*
X124897983Y-97875125D01*
X124760538Y-97878354D01*
X124638782Y-97880030D01*
X124539401Y-97880121D01*
X124469086Y-97878594D01*
X124434523Y-97875415D01*
X124385967Y-97861927D01*
X124358836Y-97344245D01*
X124331706Y-96826561D01*
X124654148Y-96815533D01*
X124976590Y-96804505D01*
X125221813Y-97299551D01*
G37*
G36*
X123625225Y-91603736D02*
G01*
X123653659Y-91643168D01*
X123693987Y-91709490D01*
X123742324Y-91795243D01*
X123794782Y-91892971D01*
X123847475Y-91995216D01*
X123896517Y-92094520D01*
X123938022Y-92183427D01*
X123968103Y-92254477D01*
X123982874Y-92300213D01*
X123997895Y-92379176D01*
X123517630Y-92404346D01*
X123037365Y-92429516D01*
X123067220Y-92348201D01*
X123072574Y-92333561D01*
X123093694Y-92274696D01*
X123107540Y-92234439D01*
X123111787Y-92222386D01*
X123144774Y-92153458D01*
X123195310Y-92069565D01*
X123258345Y-91977052D01*
X123328823Y-91882261D01*
X123401690Y-91791537D01*
X123471894Y-91711225D01*
X123534381Y-91647666D01*
X123584095Y-91607207D01*
X123615984Y-91596190D01*
X123625225Y-91603736D01*
G37*
G36*
X123715883Y-94276457D02*
G01*
X123741644Y-94318233D01*
X123777556Y-94384497D01*
X123819172Y-94467353D01*
X123839406Y-94508969D01*
X123895946Y-94624892D01*
X123953531Y-94742531D01*
X124002389Y-94841912D01*
X124004060Y-94845302D01*
X124042975Y-94925241D01*
X124064401Y-94974184D01*
X124069879Y-94998844D01*
X124060950Y-95005938D01*
X124039154Y-95002185D01*
X123943989Y-94970286D01*
X123822948Y-94915111D01*
X123697722Y-94845750D01*
X123582673Y-94769521D01*
X123546248Y-94742318D01*
X123472259Y-94681413D01*
X123428994Y-94633178D01*
X123411897Y-94591623D01*
X123416419Y-94550755D01*
X123431179Y-94528126D01*
X123469479Y-94483913D01*
X123522272Y-94428582D01*
X123580927Y-94370625D01*
X123636814Y-94318538D01*
X123681304Y-94280814D01*
X123705768Y-94265947D01*
X123715883Y-94276457D01*
G37*
G36*
X125528144Y-93989694D02*
G01*
X125544860Y-93993642D01*
X125676165Y-94032898D01*
X125811985Y-94085284D01*
X125928950Y-94141928D01*
X125981952Y-94173950D01*
X126063000Y-94230313D01*
X126140257Y-94291384D01*
X126205714Y-94350287D01*
X126251358Y-94400141D01*
X126269180Y-94434069D01*
X126257895Y-94462427D01*
X126220546Y-94512976D01*
X126164241Y-94576191D01*
X126096395Y-94644626D01*
X126024428Y-94710839D01*
X125955753Y-94767386D01*
X125897790Y-94806823D01*
X125865887Y-94824239D01*
X125777646Y-94868567D01*
X125692564Y-94907194D01*
X125648086Y-94925172D01*
X125590779Y-94946000D01*
X125557468Y-94955001D01*
X125556105Y-94954941D01*
X125546881Y-94943325D01*
X125538533Y-94909210D01*
X125530633Y-94848604D01*
X125522757Y-94757518D01*
X125514473Y-94631958D01*
X125505358Y-94467934D01*
X125479719Y-93978713D01*
X125528144Y-93989694D01*
G37*
G36*
X124036570Y-93223978D02*
G01*
X124075271Y-93962446D01*
X123924417Y-94025979D01*
X123909156Y-94032389D01*
X123838092Y-94061751D01*
X123785051Y-94082882D01*
X123760557Y-94091569D01*
X123752206Y-94085181D01*
X123728885Y-94050396D01*
X123699405Y-93995131D01*
X123686855Y-93969606D01*
X123654439Y-93904002D01*
X123607526Y-93809265D01*
X123548728Y-93690658D01*
X123480657Y-93553450D01*
X123405923Y-93402905D01*
X123327136Y-93244291D01*
X123267013Y-93122487D01*
X123196104Y-92976599D01*
X123133730Y-92845756D01*
X123082009Y-92734531D01*
X123043065Y-92647502D01*
X123019015Y-92589242D01*
X123011982Y-92564327D01*
X123012376Y-92563355D01*
X123026936Y-92553648D01*
X123063300Y-92544930D01*
X123125599Y-92536759D01*
X123217963Y-92528693D01*
X123344523Y-92520291D01*
X123509410Y-92511110D01*
X123997868Y-92485511D01*
X124036570Y-93223978D01*
G37*
G36*
X124883163Y-94028793D02*
G01*
X124890899Y-94045595D01*
X124917269Y-94100298D01*
X124957906Y-94183164D01*
X125009803Y-94288091D01*
X125069944Y-94408979D01*
X125135319Y-94539721D01*
X125178767Y-94626495D01*
X125238061Y-94745270D01*
X125288761Y-94847244D01*
X125328243Y-94927130D01*
X125353890Y-94979641D01*
X125363082Y-94999488D01*
X125352750Y-95006211D01*
X125316238Y-95018674D01*
X125303938Y-95020828D01*
X125250924Y-95025994D01*
X125165564Y-95031990D01*
X125054585Y-95038407D01*
X124924714Y-95044840D01*
X124782683Y-95050883D01*
X124704586Y-95053894D01*
X124565336Y-95058776D01*
X124460608Y-95061342D01*
X124385008Y-95061400D01*
X124333142Y-95058762D01*
X124299618Y-95053240D01*
X124279042Y-95044644D01*
X124266019Y-95032786D01*
X124256316Y-95013370D01*
X124246431Y-94971977D01*
X124237388Y-94905865D01*
X124228710Y-94810598D01*
X124219924Y-94681740D01*
X124210554Y-94514856D01*
X124185357Y-94034071D01*
X124296001Y-94014861D01*
X124332127Y-94009509D01*
X124419308Y-93999781D01*
X124524589Y-93990677D01*
X124632548Y-93983629D01*
X124858454Y-93971605D01*
X124883163Y-94028793D01*
G37*
G36*
X126455387Y-92415201D02*
G01*
X126456407Y-92418888D01*
X126462800Y-92461846D01*
X126470616Y-92540145D01*
X126479400Y-92647834D01*
X126488695Y-92778959D01*
X126498042Y-92927568D01*
X126506986Y-93087711D01*
X126513146Y-93206487D01*
X126520808Y-93362884D01*
X126525909Y-93486741D01*
X126528395Y-93584095D01*
X126528209Y-93660983D01*
X126525296Y-93723440D01*
X126519600Y-93777502D01*
X126511065Y-93829207D01*
X126499636Y-93884590D01*
X126495275Y-93904222D01*
X126470853Y-94004298D01*
X126444644Y-94099116D01*
X126421616Y-94170461D01*
X126406057Y-94209816D01*
X126383791Y-94256655D01*
X126369232Y-94275227D01*
X126351827Y-94259243D01*
X126328899Y-94218857D01*
X126318961Y-94198242D01*
X126290884Y-94141073D01*
X126247477Y-94053206D01*
X126190779Y-93938754D01*
X126122831Y-93801829D01*
X126045671Y-93646542D01*
X125961340Y-93477007D01*
X125871876Y-93297335D01*
X125798516Y-93149929D01*
X125715016Y-92981757D01*
X125639157Y-92828554D01*
X125572830Y-92694160D01*
X125517926Y-92582412D01*
X125476332Y-92497147D01*
X125449940Y-92442204D01*
X125440638Y-92421422D01*
X125448709Y-92418919D01*
X125492504Y-92413586D01*
X125569186Y-92406968D01*
X125672903Y-92399508D01*
X125797800Y-92391648D01*
X125938028Y-92383831D01*
X126436020Y-92357732D01*
X126455387Y-92415201D01*
G37*
X160987258Y-86522500D02*
X160512742Y-86522500D01*
X160987258Y-85477500D02*
X160512742Y-85477500D01*
D13*
X124615000Y-79150000D02*
X124615000Y-81250000D01*
X142497000Y-81600000D02*
X124593000Y-81600000D01*
X124593000Y-81600000D02*
X124593000Y-88100000D01*
X142497000Y-88100000D02*
X142497000Y-81600000D01*
X124593000Y-88100000D02*
X142497000Y-88100000D01*
D12*
X162460000Y-91260000D02*
X159600000Y-91260000D01*
X162460000Y-89340000D02*
X162460000Y-91260000D01*
X159600000Y-89340000D02*
X162460000Y-89340000D01*
X108110000Y-91859420D02*
X108110000Y-92140580D01*
X107090000Y-91859420D02*
X107090000Y-92140580D01*
X109122500Y-88762742D02*
X109122500Y-89237258D01*
X108077500Y-88762742D02*
X108077500Y-89237258D01*
X106922500Y-88762742D02*
X106922500Y-89237258D01*
X105877500Y-88762742D02*
X105877500Y-89237258D01*
M02*
